<svg width="46" height="66" viewBox="0 0 46 66" fill="none" xmlns="http://www.w3.org/2000/svg">
<g id="OBJECTS" clip-path="url(#clip0_4251_166)">
<path id="Vector" d="M45.3117 11.7431C46.1366 11.3344 46.0657 10.3451 45.7258 10.731C45.5097 10.9763 44.8267 11.3638 44.3549 11.6156C44.3466 11.6215 44.3362 11.6238 44.3262 11.6221C44.3161 11.6204 44.3072 11.6149 44.3012 11.6066C44.2953 11.5984 44.293 11.5881 44.2947 11.5782C44.2964 11.5682 44.302 11.5593 44.3103 11.5535C45.0725 10.8635 46.2504 9.31341 45.9502 9.26436C45.5823 9.21204 43.8484 11.9753 41.6922 12.5999C39.5359 13.2245 38.6418 14.8416 35.5881 15.6232C33.9482 16.0434 32.9485 16.6304 32.3711 17.0817L32.3315 17.1046C30.9506 18.0317 27.2981 19.3937 24.9818 19.5327C23.9174 19.5956 22.9082 20.024 22.1278 20.7443C22.1228 20.7483 22.1169 20.7512 22.1106 20.7526C22.1043 20.7541 22.0977 20.754 22.0915 20.7524C21.7941 20.6574 21.4774 20.6376 21.1703 20.6947C20.8632 20.7518 20.5753 20.8841 20.3328 21.0794C19.6993 21.588 19.4073 21.3133 18.82 21.4261C18.8115 21.4277 18.8027 21.4265 18.795 21.4226C18.7872 21.4188 18.7809 21.4125 18.7771 21.4048L18.5544 20.9258C18.5503 20.917 18.5497 20.9071 18.5528 20.898C18.5559 20.8888 18.5624 20.8812 18.5709 20.8767C20.5952 19.7321 18.5198 15.8178 17.9605 14.8449C17.9562 14.8392 17.9539 14.8323 17.9539 14.8253C17.9539 14.8182 17.9562 14.8113 17.9605 14.8056C18.0761 14.6582 18.1741 14.498 18.2525 14.3282C19.013 12.7209 16.9641 11.5273 15.8059 12.5541C14.6478 13.581 14.072 13.3815 13.0492 13.6039C12.1022 13.8115 12.1732 15.0574 12.188 15.2389C12.1884 15.2458 12.187 15.2526 12.1838 15.2586C12.1806 15.2647 12.1758 15.2697 12.1699 15.2733C10.8897 16.0401 12.1187 17.7651 13.0409 18.7952C13.0444 18.7993 13.0469 18.8041 13.0484 18.8092C13.0498 18.8143 13.0502 18.8196 13.0494 18.8249C13.0486 18.8301 13.0467 18.8352 13.0439 18.8396C13.041 18.8441 13.0372 18.8479 13.0327 18.8508C12.8397 18.9915 12.7324 19.2923 12.9288 19.706C13.2917 20.4761 13.9665 20.0101 13.9665 20.0101L14.0093 20.0575L15.1873 22.605C15.1896 22.61 15.1908 22.6154 15.1908 22.6209C15.1908 22.6264 15.1896 22.6319 15.1873 22.6369C15.1849 22.6419 15.1815 22.6463 15.1772 22.6498C15.1729 22.6533 15.1679 22.6559 15.1625 22.6573C14.9283 22.7178 14.6676 22.7963 14.3508 22.8977C14.2888 22.9185 14.2341 22.9566 14.1932 23.0073C14.1522 23.058 14.1268 23.1192 14.1199 23.1838C14.0753 23.5893 13.8147 24.4755 12.4272 24.8271C12.4272 24.8271 12.4668 24.9088 12.5279 25.0494C12.3827 25.1116 9.3587 26.4131 8.19892 27.0687C7.92011 27.2323 5.77874 27.5789 5.0842 27.7228C5.07629 27.7239 5.06821 27.7227 5.06103 27.7192C5.05386 27.7157 5.04791 27.7101 5.04399 27.7032C5.04006 27.6963 5.03833 27.6884 5.03903 27.6805C5.03973 27.6726 5.04282 27.6651 5.0479 27.659C5.54283 27.1374 7.98776 24.5278 8.58002 23.7888C8.5835 23.7848 8.5878 23.7815 8.59263 23.7793C8.59746 23.777 8.60272 23.7758 8.60806 23.7757C8.85388 23.7757 11.6535 23.7643 11.6964 23.0824C11.7195 22.6949 10.8352 23.1887 10.4096 22.9794C9.98395 22.7701 10.756 21.5438 11.8317 21.4572C12.5081 21.4032 12.5592 20.396 9.47418 20.7737C8.26491 20.9225 7.18103 22.5559 6.7125 22.8993C6.24397 23.2427 0.0359579 27.8732 -0.00693567 29.3906C-0.0498292 30.9079 1.47784 31.3706 5.27227 31.0763C9.06669 30.782 9.77939 31.2022 12.2441 30.0217C12.3655 29.9639 12.4815 29.8955 12.5906 29.8173C12.597 29.8127 12.6048 29.8102 12.6128 29.8102C12.6208 29.8102 12.6286 29.8127 12.6351 29.8173C13.3643 30.3438 17.7889 33.5894 17.3204 34.5165C17.0383 35.0741 16.771 35.6055 17.0366 35.9292C17.0391 35.9343 17.0404 35.9399 17.0404 35.9456C17.0404 35.9513 17.0391 35.9568 17.0366 35.9619L16.8024 36.8155H16.6143C16.6143 36.8155 15.4809 41.2155 14.9497 44.2371C14.4185 47.2587 13.5062 49.731 13.7602 50.004C13.8276 50.1441 13.927 50.2668 14.0506 50.3621C14.0557 50.3668 14.0596 50.3727 14.0619 50.3793C14.0642 50.3858 14.0649 50.3928 14.0638 50.3997L13.2389 54.0656C13.2374 54.0741 13.233 54.0818 13.2263 54.0875C13.2197 54.0931 13.2114 54.0964 13.2026 54.0966C9.81403 54.1113 6.27367 56.5787 4.39295 58.1173C4.38736 58.1215 4.38068 58.1242 4.37367 58.1249C4.36666 58.1256 4.35959 58.1243 4.35325 58.1213C4.34691 58.1182 4.34156 58.1135 4.33779 58.1076C4.33402 58.1017 4.33199 58.0948 4.33191 58.0878C4.33054 57.9698 4.29435 57.8547 4.22781 57.7568C4.16127 57.6589 4.06727 57.5824 3.95742 57.5368C3.22493 57.2343 1.93152 56.7553 1.55208 56.9744C1.01426 57.2867 0.692558 61.0326 0.606771 61.86C0.520984 62.6873 -0.140566 62.7707 0.0607035 64.0935C0.261973 65.4163 0.700806 66.2682 1.3904 65.8921C2.08 65.516 1.85068 63.2956 2.99231 62.635C4.0696 62.0104 5.18978 61.4904 4.77404 60.9999C4.77005 60.9961 4.76688 60.9915 4.76471 60.9865C4.76254 60.9814 4.76142 60.976 4.76142 60.9705C4.76142 60.965 4.76254 60.9596 4.76471 60.9545C4.76688 60.9494 4.77005 60.9449 4.77404 60.9411C5.90728 60.1661 7.13374 59.5344 8.42494 59.0607C8.43307 59.0581 8.44184 59.0582 8.44993 59.0609C8.45802 59.0636 8.465 59.0689 8.46983 59.0759C8.47466 59.0829 8.47707 59.0912 8.47671 59.0997C8.47635 59.1082 8.47324 59.1163 8.46783 59.1229C8.24182 59.4221 7.996 59.7098 8.0158 60.5045C8.0455 61.7521 8.34575 62.5892 9.0304 62.326C9.71504 62.0627 9.76289 59.9796 10.8963 59.5006C11.764 59.1343 12.6533 58.8318 12.7803 58.4606C12.7832 58.453 12.7884 58.4465 12.7952 58.4418C12.802 58.4371 12.81 58.4346 12.8182 58.4345C13.5722 58.4721 14.1743 58.544 14.6429 58.4803C15.2186 58.4018 16.0352 57.5319 16.8552 56.4364C16.8582 56.4322 16.8622 56.4287 16.8667 56.4262C16.8713 56.4237 16.8764 56.4221 16.8816 56.4217C19.899 56.0734 23.4707 56.1225 23.9408 55.9426C24.5694 55.7039 25.4949 52.3994 25.7556 51.4331C25.7568 51.4286 25.7591 51.4245 25.7621 51.4209C25.7651 51.4174 25.7688 51.4145 25.773 51.4125C25.7772 51.4105 25.7818 51.4094 25.7865 51.4093C25.7912 51.4092 25.7958 51.41 25.8001 51.4118C26.5574 51.5753 27.7485 43.7711 27.0655 37.9191L26.912 37.3272C26.9105 37.3213 26.9104 37.315 26.9119 37.309C26.9133 37.3031 26.9162 37.2975 26.9203 37.2929C27.016 37.1866 27.1414 36.7566 26.8692 35.0496C26.5046 32.7605 27.2205 30.0462 25.5906 25.5661C25.5881 25.5613 25.5868 25.556 25.5868 25.5506C25.5868 25.5452 25.5881 25.5399 25.5906 25.535C25.9585 24.935 25.3745 23.1723 26.8428 22.8895C28.4463 22.5805 30.6289 21.5209 31.8316 20.9912C33.0343 20.4614 34.1 20.0641 34.1 20.0641C38.0726 18.6137 40.7667 14.6683 40.9597 14.3822C40.9632 14.3768 40.9681 14.3724 40.9739 14.3695C40.9797 14.3666 40.9862 14.3654 40.9927 14.3658C43.5448 14.4083 42.8701 13.4256 44.0827 13.4256C45.2952 13.4256 45.8578 13.0888 45.6879 12.9188C45.5179 12.7487 44.0827 13.0152 43.8632 12.7749C43.6438 12.5345 44.4852 12.1486 45.3117 11.7431ZM19.7175 51.9661C19.8082 51.8026 19.7175 51.989 19.7719 51.8795L20.252 51.9122C20.3064 51.9236 20.3262 51.9301 20.3262 51.9301L20.7997 50.3098C20.8278 50.3229 20.8146 50.2967 20.8443 50.3098C20.874 50.3229 20.8624 50.1675 20.874 50.1741L20.4714 52.0021C20.47 52.0108 20.4656 52.0187 20.459 52.0247C20.4524 52.0306 20.444 52.0342 20.4351 52.0348C20.2124 52.0315 20.1266 51.8402 19.7175 51.9547V51.9661Z" fill="#124C66"/>
<path id="Vector_2" d="M35.2621 4.28717C35.2619 3.76799 35.164 3.2534 34.9734 2.76982C34.9618 2.73875 34.9486 2.70605 34.9354 2.67499C34.9107 2.61612 34.8859 2.5589 34.8579 2.50167C34.8431 2.4706 34.8282 2.44117 34.8117 2.4101C34.7189 2.22564 34.6119 2.04853 34.4917 1.88034L34.4191 1.77733C34.3844 1.73318 34.3514 1.69067 34.3151 1.64816C34.2788 1.60564 34.2541 1.57458 34.2227 1.54024C34.1914 1.5059 34.1568 1.46176 34.1221 1.42579C34.0594 1.35875 33.9951 1.29498 33.9291 1.23285L33.8384 1.15273C33.7922 1.11185 33.7443 1.07261 33.6965 1.03337C33.6486 0.994124 33.6288 0.979408 33.5942 0.954882C33.5595 0.930356 33.5199 0.897654 33.4804 0.869858L33.4606 0.856777L33.4391 0.842062L33.3467 0.778293L33.2741 0.734146L33.2461 0.71616L33.2049 0.691634L33.1405 0.655662C33.124 0.655662 33.1075 0.636041 33.091 0.62623L33.0564 0.608245L33.03 0.595164C32.9887 0.573908 32.9475 0.551017 32.9046 0.531396L32.8386 0.498694L32.8073 0.483979L32.7512 0.459453C32.7211 0.444706 32.6903 0.431605 32.6588 0.420211L32.6076 0.398954L32.5367 0.371158L32.4047 0.323741L32.3701 0.310661L32.281 0.284499C32.2348 0.269783 32.1886 0.255067 32.1424 0.243622H32.1226C31.3752 0.043855 30.5868 0.052332 29.8439 0.26812C29.1011 0.483907 28.4328 0.898638 27.9124 1.46666H27.8976C27.8745 1.49282 27.8531 1.52225 27.83 1.54842C27.8069 1.57458 27.7524 1.63835 27.7145 1.68413C27.6765 1.72991 27.627 1.79858 27.5858 1.85745C27.5446 1.91631 27.5165 1.95228 27.4835 2.00297C27.4505 2.05366 27.4076 2.1256 27.3713 2.18773C27.335 2.24987 27.3103 2.28911 27.2839 2.34143C27.2575 2.39375 27.2179 2.47387 27.1866 2.54091C27.1552 2.60795 27.1371 2.64555 27.114 2.70442C27.0909 2.76328 27.0612 2.84667 27.0348 2.91861C27.0216 2.95622 27.0067 2.99219 26.9935 3.0298C26.9935 3.04451 26.9935 3.05923 26.9803 3.07395C26.9671 3.11482 26.9572 3.15733 26.9457 3.19821C26.9341 3.23909 26.9308 3.25217 26.9242 3.27996C26.9235 3.28594 26.9235 3.29198 26.9242 3.29795C26.916 3.32902 26.9094 3.36008 26.9028 3.39115C26.8962 3.42222 26.8913 3.4402 26.8863 3.46473L26.8764 3.51542C26.8764 3.53667 26.8764 3.55956 26.8649 3.58245C26.8533 3.60535 26.8517 3.66257 26.8467 3.70182C26.8418 3.74106 26.8352 3.78193 26.8319 3.82281C26.8311 3.83861 26.8311 3.85443 26.8319 3.87023C26.8319 3.88494 26.8319 3.9013 26.8319 3.91765C26.8319 3.934 26.8319 3.9667 26.8319 3.99122C26.8319 4.08769 26.8203 4.1858 26.8203 4.28554C26.8203 4.38528 26.8203 4.47194 26.8302 4.5635C26.8982 5.62628 27.3719 6.62353 28.1552 7.35247C28.9385 8.08141 29.9725 8.48733 31.047 8.48769C31.1113 8.48769 31.174 8.48769 31.2383 8.48769L31.4561 8.47298H31.4809C31.5485 8.47298 31.6145 8.45826 31.6805 8.44845H31.7234L31.9048 8.41575L31.9642 8.40267L32.1292 8.36343L32.2051 8.34217L32.3503 8.29966L32.446 8.26696L32.568 8.22281L32.6918 8.17212L32.7825 8.13452L32.8469 8.10509L32.9095 8.07238C32.9376 8.0593 32.9656 8.04786 32.992 8.03314C33.6815 7.67611 34.2582 7.13752 34.6587 6.47661C35.0592 5.8157 35.268 5.0581 35.2621 4.28717Z" fill="#E3425C"/>
<path id="Vector_3" d="M32.1631 0.148792C32.1527 0.143808 32.1415 0.140496 32.1301 0.138982C30.979 -0.198559 29.7398 -0.0696602 28.6845 0.497388C27.6291 1.06444 26.8439 2.0233 26.5012 3.16353C26.1584 4.30376 26.2861 5.53219 26.8562 6.5792C27.4264 7.62621 28.3923 8.40626 29.5422 8.74813C30.692 9.09001 31.9317 8.96578 32.9891 8.40271C34.0466 7.83964 34.8355 6.88374 35.1826 5.74481C35.5298 4.60588 35.4068 3.37698 34.8407 2.32783C34.2745 1.27867 33.3116 0.494996 32.1631 0.148792ZM34.0834 1.52553C34.4309 1.90023 34.7055 2.33539 34.8934 2.80907C34.9292 2.90348 34.9438 3.00445 34.9363 3.10502C34.8885 3.75905 34.547 6.24601 32.0921 7.48049L32.0723 7.49194L31.9338 7.55734C31.8603 7.58378 31.7805 7.58832 31.7045 7.57042C31.6649 7.54916 31.6269 7.52791 31.5873 7.50338L31.4916 7.44125C31.2699 7.28388 31.0697 7.09866 30.8961 6.89023C30.8843 6.87839 30.8756 6.86381 30.871 6.84782C30.8663 6.83184 30.8658 6.81495 30.8694 6.79869C30.873 6.78244 30.8806 6.76734 30.8916 6.75477C30.9026 6.7422 30.9166 6.73255 30.9324 6.72672C31.4105 6.49974 31.8409 6.18518 32.201 5.79963C32.8609 5.09981 33.6858 3.8081 33.9201 1.57622C33.9223 1.55847 33.9296 1.54174 33.9412 1.52802C33.9528 1.51429 33.9681 1.50415 33.9853 1.49881C34.0025 1.49346 34.0209 1.49314 34.0383 1.49788C34.0557 1.50262 34.0713 1.51222 34.0834 1.52553ZM32.2604 0.586994C32.2595 0.563681 32.2642 0.540486 32.2743 0.519407C32.2844 0.498329 32.2995 0.48 32.3184 0.466001C32.3372 0.452001 32.3592 0.442752 32.3824 0.439048C32.4057 0.435344 32.4295 0.437299 32.4518 0.444742C32.8884 0.604356 33.2949 0.835378 33.6545 1.12821C33.6862 1.15491 33.7111 1.18869 33.7272 1.22677C33.7432 1.26485 33.75 1.30615 33.7468 1.34731C33.4268 5.09654 31.4553 6.28034 30.8185 6.56812C30.7791 6.58525 30.735 6.58893 30.6932 6.57857C30.6514 6.56822 30.6143 6.54441 30.5876 6.51089C30.2298 6.01484 29.9475 5.46946 29.7495 4.89216C29.7361 4.85516 29.7353 4.81482 29.7472 4.77731C29.7591 4.73981 29.7831 4.70721 29.8155 4.6845C31.3217 3.60862 31.9008 2.48042 32.1251 1.71193C32.2295 1.34632 32.2752 0.966686 32.2604 0.586994ZM31.0281 0.19621C31.3119 0.196411 31.595 0.226002 31.8727 0.284504C31.9221 0.295338 31.9667 0.321743 31.9997 0.359766C32.0327 0.397789 32.0524 0.445384 32.0558 0.495429C32.076 0.804521 32.0526 1.11488 31.9866 1.41761C31.9829 1.43252 31.9755 1.44625 31.965 1.45751C31.9545 1.46876 31.9412 1.47717 31.9265 1.48192C31.9118 1.48667 31.8961 1.48761 31.8809 1.48466C31.8657 1.4817 31.8515 1.47495 31.8397 1.46503C31.4782 1.17936 31.0568 0.977375 30.6064 0.873836C30.156 0.770296 29.6879 0.767822 29.2364 0.866592C29.0962 0.892754 28.9642 0.925456 28.8405 0.961427C28.7893 0.961427 28.7019 0.941806 28.7943 0.848606C29.4602 0.422993 30.2357 0.196498 31.0281 0.19621ZM27.1643 2.79926C27.3305 2.38863 27.5623 2.00715 27.8506 1.66942C27.9294 1.57539 28.0264 1.49808 28.136 1.44214C28.697 1.16091 30.4176 0.461092 31.8364 1.70702C31.8533 1.72142 31.8651 1.74063 31.8705 1.76202C31.8758 1.7834 31.8743 1.80589 31.8661 1.82638C31.7572 2.11661 31.6271 2.39859 31.4768 2.67009C31.4577 2.70011 31.4276 2.72164 31.3929 2.73018C31.3581 2.73871 31.3214 2.73358 31.2904 2.71587C29.6109 1.81003 28.0321 2.47878 27.2881 2.91371C27.2716 2.92162 27.2531 2.9244 27.235 2.92168C27.2169 2.91897 27.2 2.91089 27.1866 2.89851C27.1732 2.88613 27.164 2.87002 27.16 2.8523C27.156 2.83459 27.1575 2.8161 27.1643 2.79926ZM26.8707 4.27083C26.8738 4.05157 26.8942 3.83289 26.9317 3.6168C26.9468 3.52773 26.98 3.44264 27.0293 3.36673C27.0787 3.29082 27.1431 3.22569 27.2188 3.17533C27.7978 2.79599 29.3866 1.96046 31.1006 2.83032C31.1259 2.84271 31.1481 2.86047 31.1656 2.88233C31.1831 2.9042 31.1955 2.92962 31.202 2.9568C31.2085 2.98398 31.2088 3.01223 31.203 3.03955C31.1971 3.06687 31.1853 3.09257 31.1683 3.11483C30.7643 3.63614 30.2845 4.09515 29.7446 4.47685C29.6932 4.51282 29.6329 4.53438 29.5702 4.53927C29.5075 4.54417 29.4446 4.5322 29.3882 4.50465C28.1707 3.92583 27.3557 4.1482 26.9812 4.33133C26.8872 4.38528 26.8674 4.34277 26.8707 4.27737V4.27083ZM30.4226 8.3896C29.5147 8.25477 28.6773 7.82615 28.0409 7.17049C27.4044 6.51483 27.0046 5.66895 26.9037 4.76462C26.8991 4.72135 26.9077 4.67771 26.9283 4.63928C26.9488 4.60084 26.9805 4.56934 27.0192 4.54879C27.1747 4.46949 27.3416 4.41434 27.5141 4.38528C27.5409 4.38082 27.5684 4.38661 27.5911 4.40148C27.6137 4.41635 27.6299 4.4392 27.6362 4.4654C27.7764 5.06711 28.4214 7.29573 30.4539 8.31275C30.4607 8.31881 30.4654 8.32679 30.4675 8.3356C30.4695 8.34442 30.4688 8.35364 30.4653 8.36202C30.4619 8.3704 30.456 8.37754 30.4483 8.38247C30.4407 8.3874 30.4317 8.38989 30.4226 8.3896ZM32.3792 8.21137C32.0964 8.30752 31.8037 8.37223 31.5065 8.40431C31.3601 8.4207 31.2119 8.4045 31.0726 8.35689C28.7283 7.53935 27.9942 5.1178 27.8325 4.44742C27.8298 4.43504 27.8299 4.42223 27.8328 4.4099C27.8357 4.39756 27.8412 4.386 27.8491 4.37603C27.857 4.36605 27.8669 4.35791 27.8783 4.35216C27.8897 4.34642 27.9022 4.34321 27.915 4.34277C28.4123 4.35699 28.8997 4.48336 29.3404 4.7123C29.4286 4.77902 29.5026 4.86238 29.5581 4.95756C29.6984 5.35162 30.0531 6.23129 30.5711 6.79866L30.6503 6.90167C30.6496 6.90656 30.6496 6.9115 30.6503 6.91639C30.8486 7.18729 31.0951 7.42002 31.3778 7.60312L31.4174 7.63092L31.4982 7.68161L31.5593 7.71594C31.8158 7.86301 32.0881 7.98146 32.371 8.06912C32.387 8.0727 32.4013 8.08144 32.4118 8.09397C32.4222 8.10649 32.4282 8.1221 32.4288 8.13835C32.4294 8.15461 32.4245 8.17059 32.4149 8.1838C32.4053 8.19701 32.3916 8.2067 32.3759 8.21137H32.3792ZM32.9748 7.95303C32.9161 7.98414 32.8478 7.99231 32.7834 7.97592C32.5851 7.92894 32.39 7.86941 32.1994 7.7977C32.1849 7.7915 32.1725 7.78123 32.1638 7.76816C32.1552 7.75508 32.1505 7.73977 32.1505 7.72412C32.1505 7.70846 32.1552 7.69316 32.1638 7.68008C32.1725 7.667 32.1849 7.65673 32.1994 7.65054C34.255 6.60899 34.8769 4.73683 35.0584 3.69855C35.0716 3.65113 35.0963 3.60045 35.1326 3.71817C35.1616 3.91651 35.1792 4.11631 35.1854 4.31661C35.1843 5.06486 34.9776 5.79868 34.5876 6.43932C34.1976 7.07997 33.6389 7.60326 32.9715 7.95303H32.9748Z" fill="#F9EEDC"/>
</g>
<defs>
<clipPath id="clip0_4251_166">
<rect width="46" height="66" fill="white"/>
</clipPath>
</defs>
</svg>
