<svg width="216" height="66" viewBox="0 0 216 66" fill="none" xmlns="http://www.w3.org/2000/svg">
<g clip-path="url(#clip0_4251_165)">
<path d="M45.3117 11.7431C46.1366 11.3344 46.0657 10.3451 45.7258 10.731C45.5097 10.9763 44.8267 11.3638 44.3549 11.6156C44.3466 11.6215 44.3362 11.6238 44.3262 11.6221C44.3161 11.6204 44.3072 11.6149 44.3012 11.6066C44.2953 11.5984 44.293 11.5881 44.2947 11.5782C44.2964 11.5682 44.302 11.5593 44.3103 11.5535C45.0725 10.8635 46.2504 9.31341 45.9502 9.26436C45.5823 9.21204 43.8484 11.9753 41.6922 12.5999C39.5359 13.2245 38.6418 14.8416 35.5881 15.6232C33.9482 16.0434 32.9485 16.6304 32.3711 17.0817L32.3315 17.1046C30.9506 18.0317 27.2981 19.3937 24.9818 19.5327C23.9174 19.5956 22.9082 20.024 22.1278 20.7443C22.1228 20.7483 22.1169 20.7512 22.1106 20.7526C22.1043 20.7541 22.0977 20.754 22.0915 20.7524C21.7941 20.6574 21.4774 20.6376 21.1703 20.6947C20.8632 20.7518 20.5753 20.8841 20.3328 21.0794C19.6993 21.588 19.4073 21.3133 18.82 21.4261C18.8115 21.4277 18.8027 21.4265 18.795 21.4226C18.7872 21.4188 18.7809 21.4125 18.7771 21.4048L18.5544 20.9258C18.5503 20.917 18.5497 20.9071 18.5528 20.898C18.5559 20.8888 18.5624 20.8812 18.5709 20.8767C20.5952 19.7321 18.5198 15.8178 17.9605 14.8449C17.9562 14.8392 17.9539 14.8323 17.9539 14.8253C17.9539 14.8182 17.9562 14.8113 17.9605 14.8056C18.0761 14.6582 18.1741 14.498 18.2525 14.3282C19.013 12.7209 16.9641 11.5273 15.8059 12.5541C14.6478 13.581 14.072 13.3815 13.0492 13.6039C12.1022 13.8115 12.1732 15.0574 12.188 15.2389C12.1884 15.2458 12.187 15.2526 12.1838 15.2586C12.1806 15.2647 12.1758 15.2697 12.1699 15.2733C10.8897 16.0401 12.1187 17.7651 13.0409 18.7952C13.0444 18.7993 13.0469 18.8041 13.0484 18.8092C13.0498 18.8143 13.0502 18.8196 13.0494 18.8249C13.0486 18.8301 13.0467 18.8352 13.0439 18.8396C13.041 18.8441 13.0372 18.8479 13.0327 18.8508C12.8397 18.9915 12.7324 19.2923 12.9288 19.706C13.2917 20.4761 13.9665 20.0101 13.9665 20.0101L14.0093 20.0575L15.1873 22.605C15.1896 22.61 15.1908 22.6154 15.1908 22.6209C15.1908 22.6264 15.1896 22.6319 15.1873 22.6369C15.1849 22.6419 15.1815 22.6463 15.1772 22.6498C15.1729 22.6533 15.1679 22.6559 15.1625 22.6573C14.9283 22.7178 14.6676 22.7963 14.3508 22.8977C14.2888 22.9185 14.2341 22.9566 14.1932 23.0073C14.1522 23.058 14.1268 23.1192 14.1199 23.1838C14.0753 23.5893 13.8147 24.4755 12.4272 24.8271C12.4272 24.8271 12.4668 24.9088 12.5279 25.0494C12.3827 25.1116 9.3587 26.4131 8.19892 27.0687C7.92011 27.2323 5.77874 27.5789 5.0842 27.7228C5.07629 27.7239 5.06821 27.7227 5.06103 27.7192C5.05386 27.7157 5.04791 27.7101 5.04399 27.7032C5.04006 27.6963 5.03833 27.6884 5.03903 27.6805C5.03973 27.6726 5.04282 27.6651 5.0479 27.659C5.54283 27.1374 7.98776 24.5278 8.58002 23.7888C8.5835 23.7848 8.5878 23.7815 8.59263 23.7793C8.59746 23.777 8.60272 23.7758 8.60806 23.7757C8.85388 23.7757 11.6535 23.7643 11.6964 23.0824C11.7195 22.6949 10.8352 23.1887 10.4096 22.9794C9.98395 22.7701 10.756 21.5438 11.8317 21.4572C12.5081 21.4032 12.5592 20.396 9.47418 20.7737C8.26491 20.9225 7.18103 22.5559 6.7125 22.8993C6.24397 23.2427 0.0359579 27.8732 -0.00693567 29.3906C-0.0498292 30.9079 1.47784 31.3706 5.27227 31.0763C9.06669 30.782 9.77939 31.2022 12.2441 30.0217C12.3655 29.9639 12.4815 29.8955 12.5906 29.8173C12.597 29.8127 12.6048 29.8102 12.6128 29.8102C12.6208 29.8102 12.6286 29.8127 12.6351 29.8173C13.3643 30.3438 17.7889 33.5894 17.3204 34.5165C17.0383 35.0741 16.771 35.6055 17.0366 35.9292C17.0391 35.9343 17.0404 35.9399 17.0404 35.9456C17.0404 35.9513 17.0391 35.9568 17.0366 35.9619L16.8024 36.8155H16.6143C16.6143 36.8155 15.4809 41.2155 14.9497 44.2371C14.4185 47.2587 13.5062 49.731 13.7602 50.004C13.8276 50.1441 13.927 50.2668 14.0506 50.3621C14.0557 50.3668 14.0596 50.3727 14.0619 50.3793C14.0642 50.3858 14.0649 50.3928 14.0638 50.3997L13.2389 54.0656C13.2374 54.0741 13.233 54.0818 13.2263 54.0875C13.2197 54.0931 13.2114 54.0964 13.2026 54.0966C9.81403 54.1113 6.27367 56.5787 4.39295 58.1173C4.38736 58.1215 4.38068 58.1242 4.37367 58.1249C4.36666 58.1256 4.35959 58.1243 4.35325 58.1213C4.34691 58.1182 4.34156 58.1135 4.33779 58.1076C4.33402 58.1017 4.33199 58.0948 4.33191 58.0878C4.33054 57.9698 4.29435 57.8547 4.22781 57.7568C4.16127 57.6589 4.06727 57.5824 3.95742 57.5368C3.22493 57.2343 1.93152 56.7553 1.55208 56.9744C1.01426 57.2867 0.692558 61.0326 0.606771 61.86C0.520984 62.6873 -0.140566 62.7707 0.0607035 64.0935C0.261973 65.4163 0.700806 66.2682 1.3904 65.8921C2.08 65.516 1.85068 63.2956 2.99231 62.635C4.0696 62.0104 5.18978 61.4904 4.77404 60.9999C4.77005 60.9961 4.76688 60.9915 4.76471 60.9865C4.76254 60.9814 4.76142 60.976 4.76142 60.9705C4.76142 60.965 4.76254 60.9596 4.76471 60.9545C4.76688 60.9494 4.77005 60.9449 4.77404 60.9411C5.90728 60.1661 7.13374 59.5344 8.42494 59.0607C8.43307 59.0581 8.44184 59.0582 8.44993 59.0609C8.45802 59.0636 8.465 59.0689 8.46983 59.0759C8.47466 59.0829 8.47707 59.0912 8.47671 59.0997C8.47635 59.1082 8.47324 59.1163 8.46783 59.1229C8.24182 59.4221 7.996 59.7098 8.0158 60.5045C8.0455 61.7521 8.34575 62.5892 9.0304 62.326C9.71504 62.0627 9.76289 59.9796 10.8963 59.5006C11.764 59.1343 12.6533 58.8318 12.7803 58.4606C12.7832 58.453 12.7884 58.4465 12.7952 58.4418C12.802 58.4371 12.81 58.4346 12.8182 58.4345C13.5722 58.4721 14.1743 58.544 14.6429 58.4803C15.2186 58.4018 16.0352 57.5319 16.8552 56.4364C16.8582 56.4322 16.8622 56.4287 16.8667 56.4262C16.8713 56.4237 16.8764 56.4221 16.8816 56.4217C19.899 56.0734 23.4707 56.1225 23.9408 55.9426C24.5694 55.7039 25.4949 52.3994 25.7556 51.4331C25.7568 51.4286 25.7591 51.4245 25.7621 51.4209C25.7651 51.4174 25.7688 51.4145 25.773 51.4125C25.7772 51.4105 25.7818 51.4094 25.7865 51.4093C25.7912 51.4092 25.7958 51.41 25.8001 51.4118C26.5574 51.5753 27.7485 43.7711 27.0655 37.9191L26.912 37.3272C26.9105 37.3213 26.9104 37.315 26.9119 37.309C26.9133 37.3031 26.9162 37.2975 26.9203 37.2929C27.016 37.1866 27.1414 36.7566 26.8692 35.0496C26.5046 32.7605 27.2205 30.0462 25.5906 25.5661C25.5881 25.5613 25.5868 25.556 25.5868 25.5506C25.5868 25.5452 25.5881 25.5399 25.5906 25.535C25.9585 24.935 25.3745 23.1723 26.8428 22.8895C28.4463 22.5805 30.6289 21.5209 31.8316 20.9912C33.0343 20.4614 34.1 20.0641 34.1 20.0641C38.0726 18.6137 40.7667 14.6683 40.9597 14.3822C40.9632 14.3768 40.9681 14.3724 40.9739 14.3695C40.9797 14.3666 40.9862 14.3654 40.9927 14.3658C43.5448 14.4083 42.8701 13.4256 44.0827 13.4256C45.2952 13.4256 45.8578 13.0888 45.6879 12.9188C45.5179 12.7487 44.0827 13.0152 43.8632 12.7749C43.6438 12.5345 44.4852 12.1486 45.3117 11.7431ZM19.7175 51.9661C19.8082 51.8026 19.7175 51.989 19.7719 51.8795L20.252 51.9122C20.3064 51.9236 20.3262 51.9301 20.3262 51.9301L20.7997 50.3098C20.8278 50.3229 20.8146 50.2967 20.8443 50.3098C20.874 50.3229 20.8624 50.1675 20.874 50.1741L20.4714 52.0021C20.47 52.0108 20.4656 52.0187 20.459 52.0247C20.4524 52.0306 20.444 52.0342 20.4351 52.0348C20.2124 52.0315 20.1266 51.8402 19.7175 51.9547V51.9661Z" fill="#124C66"/>
<path d="M35.2621 4.28717C35.2619 3.76799 35.164 3.2534 34.9734 2.76982C34.9618 2.73875 34.9486 2.70605 34.9354 2.67499C34.9107 2.61612 34.8859 2.5589 34.8579 2.50167C34.8431 2.4706 34.8282 2.44117 34.8117 2.4101C34.7189 2.22564 34.6119 2.04853 34.4917 1.88034L34.4191 1.77733C34.3844 1.73318 34.3514 1.69067 34.3151 1.64816C34.2788 1.60564 34.2541 1.57458 34.2227 1.54024C34.1914 1.5059 34.1568 1.46176 34.1221 1.42579C34.0594 1.35875 33.9951 1.29498 33.9291 1.23285L33.8384 1.15273C33.7922 1.11185 33.7443 1.07261 33.6965 1.03337C33.6486 0.994124 33.6288 0.979408 33.5942 0.954882C33.5595 0.930356 33.5199 0.897654 33.4804 0.869858L33.4606 0.856777L33.4391 0.842062L33.3467 0.778293L33.2741 0.734146L33.2461 0.71616L33.2049 0.691634L33.1405 0.655662C33.124 0.655662 33.1075 0.636041 33.091 0.62623L33.0564 0.608245L33.03 0.595164C32.9887 0.573908 32.9475 0.551017 32.9046 0.531396L32.8386 0.498694L32.8073 0.483979L32.7512 0.459453C32.7211 0.444706 32.6903 0.431605 32.6588 0.420211L32.6076 0.398954L32.5367 0.371158L32.4047 0.323741L32.3701 0.310661L32.281 0.284499C32.2348 0.269783 32.1886 0.255067 32.1424 0.243622H32.1226C31.3752 0.043855 30.5868 0.052332 29.8439 0.26812C29.1011 0.483907 28.4328 0.898638 27.9124 1.46666H27.8976C27.8745 1.49282 27.8531 1.52225 27.83 1.54842C27.8069 1.57458 27.7524 1.63835 27.7145 1.68413C27.6765 1.72991 27.627 1.79858 27.5858 1.85745C27.5446 1.91631 27.5165 1.95228 27.4835 2.00297C27.4505 2.05366 27.4076 2.1256 27.3713 2.18773C27.335 2.24987 27.3103 2.28911 27.2839 2.34143C27.2575 2.39375 27.2179 2.47387 27.1866 2.54091C27.1552 2.60795 27.1371 2.64555 27.114 2.70442C27.0909 2.76328 27.0612 2.84667 27.0348 2.91861C27.0216 2.95622 27.0067 2.99219 26.9935 3.0298C26.9935 3.04451 26.9935 3.05923 26.9803 3.07395C26.9671 3.11482 26.9572 3.15733 26.9457 3.19821C26.9341 3.23909 26.9308 3.25217 26.9242 3.27996C26.9235 3.28594 26.9235 3.29198 26.9242 3.29795C26.916 3.32902 26.9094 3.36008 26.9028 3.39115C26.8962 3.42222 26.8913 3.4402 26.8863 3.46473L26.8764 3.51542C26.8764 3.53667 26.8764 3.55956 26.8649 3.58245C26.8533 3.60535 26.8517 3.66257 26.8467 3.70182C26.8418 3.74106 26.8352 3.78193 26.8319 3.82281C26.8311 3.83861 26.8311 3.85443 26.8319 3.87023C26.8319 3.88494 26.8319 3.9013 26.8319 3.91765C26.8319 3.934 26.8319 3.9667 26.8319 3.99122C26.8319 4.08769 26.8203 4.1858 26.8203 4.28554C26.8203 4.38528 26.8203 4.47194 26.8302 4.5635C26.8982 5.62628 27.3719 6.62353 28.1552 7.35247C28.9385 8.08141 29.9725 8.48733 31.047 8.48769C31.1113 8.48769 31.174 8.48769 31.2383 8.48769L31.4561 8.47298H31.4809C31.5485 8.47298 31.6145 8.45826 31.6805 8.44845H31.7234L31.9048 8.41575L31.9642 8.40267L32.1292 8.36343L32.2051 8.34217L32.3503 8.29966L32.446 8.26696L32.568 8.22281L32.6918 8.17212L32.7825 8.13452L32.8469 8.10509L32.9095 8.07238C32.9376 8.0593 32.9656 8.04786 32.992 8.03314C33.6815 7.67611 34.2582 7.13752 34.6587 6.47661C35.0592 5.8157 35.268 5.0581 35.2621 4.28717Z" fill="#E3425C"/>
<path d="M32.1631 0.148792C32.1527 0.143808 32.1415 0.140496 32.1301 0.138982C30.979 -0.198559 29.7398 -0.0696602 28.6845 0.497388C27.6291 1.06444 26.8439 2.0233 26.5012 3.16353C26.1584 4.30376 26.2861 5.53219 26.8562 6.5792C27.4264 7.62621 28.3923 8.40626 29.5422 8.74813C30.692 9.09001 31.9317 8.96578 32.9891 8.40271C34.0466 7.83964 34.8355 6.88374 35.1826 5.74481C35.5298 4.60588 35.4068 3.37698 34.8407 2.32783C34.2745 1.27867 33.3116 0.494996 32.1631 0.148792ZM34.0834 1.52553C34.4309 1.90023 34.7055 2.33539 34.8934 2.80907C34.9292 2.90348 34.9438 3.00445 34.9363 3.10502C34.8885 3.75905 34.547 6.24601 32.0921 7.48049L32.0723 7.49194L31.9338 7.55734C31.8603 7.58378 31.7805 7.58832 31.7045 7.57042C31.6649 7.54916 31.6269 7.52791 31.5873 7.50338L31.4916 7.44125C31.2699 7.28388 31.0697 7.09866 30.8961 6.89023C30.8843 6.87839 30.8756 6.86381 30.871 6.84782C30.8663 6.83184 30.8658 6.81495 30.8694 6.79869C30.873 6.78244 30.8806 6.76734 30.8916 6.75477C30.9026 6.7422 30.9166 6.73255 30.9324 6.72672C31.4105 6.49974 31.8409 6.18518 32.201 5.79963C32.8609 5.09981 33.6858 3.8081 33.9201 1.57622C33.9223 1.55847 33.9296 1.54174 33.9412 1.52802C33.9528 1.51429 33.9681 1.50415 33.9853 1.49881C34.0025 1.49346 34.0209 1.49314 34.0383 1.49788C34.0557 1.50262 34.0713 1.51222 34.0834 1.52553ZM32.2604 0.586994C32.2595 0.563681 32.2642 0.540486 32.2743 0.519407C32.2844 0.498329 32.2995 0.48 32.3184 0.466001C32.3372 0.452001 32.3592 0.442752 32.3824 0.439048C32.4057 0.435344 32.4295 0.437299 32.4518 0.444742C32.8884 0.604356 33.2949 0.835378 33.6545 1.12821C33.6862 1.15491 33.7111 1.18869 33.7272 1.22677C33.7432 1.26485 33.75 1.30615 33.7468 1.34731C33.4268 5.09654 31.4553 6.28034 30.8185 6.56812C30.7791 6.58525 30.735 6.58893 30.6932 6.57857C30.6514 6.56822 30.6143 6.54441 30.5876 6.51089C30.2298 6.01484 29.9475 5.46946 29.7495 4.89216C29.7361 4.85516 29.7353 4.81482 29.7472 4.77731C29.7591 4.73981 29.7831 4.70721 29.8155 4.6845C31.3217 3.60862 31.9008 2.48042 32.1251 1.71193C32.2295 1.34632 32.2752 0.966686 32.2604 0.586994ZM31.0281 0.19621C31.3119 0.196411 31.595 0.226002 31.8727 0.284504C31.9221 0.295338 31.9667 0.321743 31.9997 0.359766C32.0327 0.397789 32.0524 0.445384 32.0558 0.495429C32.076 0.804521 32.0526 1.11488 31.9866 1.41761C31.9829 1.43252 31.9755 1.44625 31.965 1.45751C31.9545 1.46876 31.9412 1.47717 31.9265 1.48192C31.9118 1.48667 31.8961 1.48761 31.8809 1.48466C31.8657 1.4817 31.8515 1.47495 31.8397 1.46503C31.4782 1.17936 31.0568 0.977375 30.6064 0.873836C30.156 0.770296 29.6879 0.767822 29.2364 0.866592C29.0962 0.892754 28.9642 0.925456 28.8405 0.961427C28.7893 0.961427 28.7019 0.941806 28.7943 0.848606C29.4602 0.422993 30.2357 0.196498 31.0281 0.19621ZM27.1643 2.79926C27.3305 2.38863 27.5623 2.00715 27.8506 1.66942C27.9294 1.57539 28.0264 1.49808 28.136 1.44214C28.697 1.16091 30.4176 0.461092 31.8364 1.70702C31.8533 1.72142 31.8651 1.74063 31.8705 1.76202C31.8758 1.7834 31.8743 1.80589 31.8661 1.82638C31.7572 2.11661 31.6271 2.39859 31.4768 2.67009C31.4577 2.70011 31.4276 2.72164 31.3929 2.73018C31.3581 2.73871 31.3214 2.73358 31.2904 2.71587C29.6109 1.81003 28.0321 2.47878 27.2881 2.91371C27.2716 2.92162 27.2531 2.9244 27.235 2.92168C27.2169 2.91897 27.2 2.91089 27.1866 2.89851C27.1732 2.88613 27.164 2.87002 27.16 2.8523C27.156 2.83459 27.1575 2.8161 27.1643 2.79926ZM26.8707 4.27083C26.8738 4.05157 26.8942 3.83289 26.9317 3.6168C26.9468 3.52773 26.98 3.44264 27.0293 3.36673C27.0787 3.29082 27.1431 3.22569 27.2188 3.17533C27.7978 2.79599 29.3866 1.96046 31.1006 2.83032C31.1259 2.84271 31.1481 2.86047 31.1656 2.88233C31.1831 2.9042 31.1955 2.92962 31.202 2.9568C31.2085 2.98398 31.2088 3.01223 31.203 3.03955C31.1971 3.06687 31.1853 3.09257 31.1683 3.11483C30.7643 3.63614 30.2845 4.09515 29.7446 4.47685C29.6932 4.51282 29.6329 4.53438 29.5702 4.53927C29.5075 4.54417 29.4446 4.5322 29.3882 4.50465C28.1707 3.92583 27.3557 4.1482 26.9812 4.33133C26.8872 4.38528 26.8674 4.34277 26.8707 4.27737V4.27083ZM30.4226 8.3896C29.5147 8.25477 28.6773 7.82615 28.0409 7.17049C27.4044 6.51483 27.0046 5.66895 26.9037 4.76462C26.8991 4.72135 26.9077 4.67771 26.9283 4.63928C26.9488 4.60084 26.9805 4.56934 27.0192 4.54879C27.1747 4.46949 27.3416 4.41434 27.5141 4.38528C27.5409 4.38082 27.5684 4.38661 27.5911 4.40148C27.6137 4.41635 27.6299 4.4392 27.6362 4.4654C27.7764 5.06711 28.4214 7.29573 30.4539 8.31275C30.4607 8.31881 30.4654 8.32679 30.4675 8.3356C30.4695 8.34442 30.4688 8.35364 30.4653 8.36202C30.4619 8.3704 30.456 8.37754 30.4483 8.38247C30.4407 8.3874 30.4317 8.38989 30.4226 8.3896ZM32.3792 8.21137C32.0964 8.30752 31.8037 8.37223 31.5065 8.40431C31.3601 8.4207 31.2119 8.4045 31.0726 8.35689C28.7283 7.53935 27.9942 5.1178 27.8325 4.44742C27.8298 4.43504 27.8299 4.42223 27.8328 4.4099C27.8357 4.39756 27.8412 4.386 27.8491 4.37603C27.857 4.36605 27.8669 4.35791 27.8783 4.35216C27.8897 4.34642 27.9022 4.34321 27.915 4.34277C28.4123 4.35699 28.8997 4.48336 29.3404 4.7123C29.4286 4.77902 29.5026 4.86238 29.5581 4.95756C29.6984 5.35162 30.0531 6.23129 30.5711 6.79866L30.6503 6.90167C30.6496 6.90656 30.6496 6.9115 30.6503 6.91639C30.8486 7.18729 31.0951 7.42002 31.3778 7.60312L31.4174 7.63092L31.4982 7.68161L31.5593 7.71594C31.8158 7.86301 32.0881 7.98146 32.371 8.06912C32.387 8.0727 32.4013 8.08144 32.4118 8.09397C32.4222 8.10649 32.4282 8.1221 32.4288 8.13835C32.4294 8.15461 32.4245 8.17059 32.4149 8.1838C32.4053 8.19701 32.3916 8.2067 32.3759 8.21137H32.3792ZM32.9748 7.95303C32.9161 7.98414 32.8478 7.99231 32.7834 7.97592C32.5851 7.92894 32.39 7.86941 32.1994 7.7977C32.1849 7.7915 32.1725 7.78123 32.1638 7.76816C32.1552 7.75508 32.1505 7.73977 32.1505 7.72412C32.1505 7.70846 32.1552 7.69316 32.1638 7.68008C32.1725 7.667 32.1849 7.65673 32.1994 7.65054C34.255 6.60899 34.8769 4.73683 35.0584 3.69855C35.0716 3.65113 35.0963 3.60045 35.1326 3.71817C35.1616 3.91651 35.1792 4.11631 35.1854 4.31661C35.1843 5.06486 34.9776 5.79868 34.5876 6.43932C34.1976 7.07997 33.6389 7.60326 32.9715 7.95303H32.9748Z" fill="#F9EEDC"/>
</g>
<path d="M57.952 39.832C57.952 40.408 57.808 40.936 57.52 41.416C57.232 41.896 56.848 42.28 56.368 42.568C55.888 42.856 55.36 43 54.784 43H50.176C49.6 43 49.064 42.856 48.568 42.568C48.088 42.28 47.704 41.896 47.416 41.416C47.128 40.936 46.984 40.408 46.984 39.832V39.112C46.984 38.808 47.088 38.552 47.296 38.344C47.52 38.12 47.784 38.008 48.088 38.008H48.76C49.048 38.008 49.296 38.12 49.504 38.344C49.728 38.552 49.84 38.808 49.84 39.112V39.832C49.84 39.912 49.872 39.992 49.936 40.072C50.016 40.136 50.096 40.168 50.176 40.168H54.784C54.864 40.168 54.936 40.136 55 40.072C55.064 39.992 55.096 39.912 55.096 39.832V37.648C55.096 37.472 55.016 37.36 54.856 37.312L49.096 35.152C48.456 34.928 47.944 34.536 47.56 33.976C47.176 33.416 46.984 32.8 46.984 32.128V29.968C46.984 29.376 47.128 28.84 47.416 28.36C47.704 27.88 48.088 27.496 48.568 27.208C49.064 26.92 49.6 26.776 50.176 26.776H54.784C55.36 26.776 55.888 26.92 56.368 27.208C56.848 27.496 57.232 27.88 57.52 28.36C57.808 28.84 57.952 29.376 57.952 29.968V30.616C57.952 30.92 57.84 31.176 57.616 31.384C57.408 31.592 57.152 31.696 56.848 31.696H56.2C55.896 31.696 55.632 31.592 55.408 31.384C55.2 31.176 55.096 30.92 55.096 30.616V29.968C55.096 29.744 54.992 29.632 54.784 29.632H50.176C50.096 29.632 50.016 29.664 49.936 29.728C49.872 29.792 49.84 29.872 49.84 29.968V32.128C49.84 32.32 49.92 32.44 50.08 32.488L55.864 34.648C56.488 34.872 56.992 35.264 57.376 35.824C57.76 36.384 57.952 36.992 57.952 37.648V39.832ZM68.4895 42.328C68.3135 42.776 67.9855 43 67.5055 43H66.6175C66.2975 43 66.0175 42.88 65.7775 42.64L62.9695 39.544C62.9535 39.512 62.9135 39.504 62.8495 39.52C62.8015 39.536 62.7775 39.576 62.7775 39.64V41.896C62.7775 42.2 62.6655 42.464 62.4415 42.688C62.2335 42.896 61.9775 43 61.6735 43H61.0015C60.6975 43 60.4335 42.896 60.2095 42.688C60.0015 42.464 59.8975 42.2 59.8975 41.896V27.88C59.8975 27.56 60.0015 27.296 60.2095 27.088C60.4335 26.88 60.6975 26.776 61.0015 26.776H61.6735C61.9775 26.776 62.2335 26.88 62.4415 27.088C62.6655 27.296 62.7775 27.56 62.7775 27.88V33.952C62.7775 34 62.8015 34.04 62.8495 34.072C62.9135 34.088 62.9535 34.072 62.9695 34.024L65.5135 31.264C65.7215 31.024 65.9855 30.904 66.3055 30.904H67.1935C67.6575 30.904 67.9935 31.128 68.2015 31.576C68.2815 31.768 68.3055 31.976 68.2735 32.2C68.2415 32.408 68.1535 32.584 68.0095 32.728L64.5295 36.568C64.4655 36.632 64.4335 36.712 64.4335 36.808C64.4335 36.888 64.4655 36.952 64.5295 37L68.2975 41.152C68.4415 41.312 68.5295 41.504 68.5615 41.728C68.6095 41.936 68.5855 42.136 68.4895 42.328ZM78.5781 31.96L75.2901 44.584C75.1141 45.24 74.7541 45.776 74.2101 46.192C73.6661 46.624 73.0421 46.84 72.3381 46.84H71.6661C71.3621 46.84 71.0981 46.728 70.8741 46.504C70.6661 46.296 70.5621 46.04 70.5621 45.736V45.064C70.5621 44.76 70.6661 44.504 70.8741 44.296C71.0981 44.088 71.3621 43.984 71.6661 43.984H72.3381C72.4341 43.984 72.4981 43.936 72.5301 43.84L73.0581 41.776C73.1061 41.648 73.1061 41.512 73.0581 41.368L70.6101 31.96C70.4821 31.592 70.5461 31.28 70.8021 31.024C71.0101 30.72 71.2901 30.568 71.6421 30.568H72.3381C72.5941 30.568 72.8181 30.648 73.0101 30.808C73.2021 30.952 73.3301 31.152 73.3941 31.408L74.4741 35.512C74.4901 35.576 74.5301 35.608 74.5941 35.608C74.6581 35.608 74.6981 35.576 74.7141 35.512L75.7941 31.408C75.8741 31.152 76.0021 30.952 76.1781 30.808C76.3701 30.648 76.5861 30.568 76.8261 30.568H77.5221C77.8901 30.568 78.1781 30.72 78.3861 31.024C78.6261 31.28 78.6901 31.592 78.5781 31.96ZM91.2259 41.896C91.2259 42.2 91.1219 42.464 90.9139 42.688C90.7059 42.896 90.4419 43 90.1219 43H89.4739C89.1699 43 88.9059 42.896 88.6819 42.688C88.4739 42.464 88.3699 42.2 88.3699 41.896V36.616C88.3699 36.424 88.2659 36.328 88.0579 36.328H83.7379C83.5299 36.328 83.4259 36.424 83.4259 36.616V41.896C83.4259 42.2 83.3139 42.464 83.0899 42.688C82.8819 42.896 82.6259 43 82.3219 43H81.6499C81.3459 43 81.0819 42.896 80.8579 42.688C80.6499 42.464 80.5459 42.2 80.5459 41.896V27.88C80.5459 27.56 80.6499 27.296 80.8579 27.088C81.0819 26.88 81.3459 26.776 81.6499 26.776H82.3219C82.6259 26.776 82.8819 26.88 83.0899 27.088C83.3139 27.296 83.4259 27.56 83.4259 27.88V33.136C83.4259 33.36 83.5299 33.472 83.7379 33.472H88.0579C88.2659 33.472 88.3699 33.36 88.3699 33.136V27.88C88.3699 27.56 88.4739 27.296 88.6819 27.088C88.9059 26.88 89.1699 26.776 89.4739 26.776H90.1219C90.4419 26.776 90.7059 26.88 90.9139 27.088C91.1219 27.296 91.2259 27.56 91.2259 27.88V41.896ZM96.8028 28.312C96.8028 28.808 96.6188 29.24 96.2508 29.608C95.8988 29.96 95.4828 30.136 95.0028 30.136C94.5068 30.136 94.0748 29.96 93.7068 29.608C93.3548 29.24 93.1788 28.808 93.1788 28.312C93.1788 27.832 93.3548 27.416 93.7068 27.064C94.0748 26.696 94.5068 26.512 95.0028 26.512C95.4828 26.512 95.8988 26.696 96.2508 27.064C96.6188 27.416 96.8028 27.832 96.8028 28.312ZM96.4188 41.896C96.4188 42.2 96.3068 42.464 96.0828 42.688C95.8748 42.896 95.6188 43 95.3148 43H94.6668C94.3628 43 94.0988 42.896 93.8748 42.688C93.6668 42.464 93.5628 42.2 93.5628 41.896V31.936C93.5628 31.632 93.6668 31.376 93.8748 31.168C94.0988 30.944 94.3628 30.832 94.6668 30.832H95.3148C95.6188 30.832 95.8748 30.944 96.0828 31.168C96.3068 31.376 96.4188 31.632 96.4188 31.936V41.896ZM107.421 44.152C107.421 44.632 107.301 45.072 107.061 45.472C106.821 45.888 106.501 46.216 106.101 46.456C105.701 46.712 105.253 46.84 104.757 46.84H101.421C101.117 46.84 100.853 46.728 100.629 46.504C100.421 46.296 100.317 46.04 100.317 45.736V45.064C100.317 44.76 100.421 44.504 100.629 44.296C100.853 44.088 101.117 43.984 101.421 43.984H104.253C104.333 43.984 104.405 43.952 104.469 43.888C104.549 43.824 104.589 43.752 104.589 43.672V43.312C104.589 43.232 104.549 43.16 104.469 43.096C104.405 43.032 104.333 43 104.253 43H101.421C100.685 43 100.053 42.744 99.5254 42.232C98.9974 41.704 98.7334 41.064 98.7334 40.312V33.256C98.7334 32.76 98.8534 32.312 99.0934 31.912C99.3494 31.496 99.6774 31.168 100.077 30.928C100.477 30.688 100.925 30.568 101.421 30.568H104.757C105.253 30.568 105.701 30.688 106.101 30.928C106.501 31.168 106.821 31.496 107.061 31.912C107.301 32.312 107.421 32.76 107.421 33.256V44.152ZM104.589 39.856V33.76C104.589 33.664 104.549 33.584 104.469 33.52C104.405 33.456 104.333 33.424 104.253 33.424H101.925C101.845 33.424 101.765 33.456 101.685 33.52C101.621 33.584 101.589 33.664 101.589 33.76V39.856C101.589 39.936 101.621 40.008 101.685 40.072C101.765 40.136 101.845 40.168 101.925 40.168H104.253C104.333 40.168 104.405 40.136 104.469 40.072C104.549 40.008 104.589 39.936 104.589 39.856ZM118.062 41.896C118.062 42.2 117.958 42.464 117.75 42.688C117.542 42.896 117.286 43 116.982 43H116.31C116.006 43 115.75 42.896 115.542 42.688C115.334 42.464 115.23 42.2 115.23 41.896V33.76C115.23 33.664 115.19 33.584 115.11 33.52C115.046 33.456 114.974 33.424 114.894 33.424H112.566C112.486 33.424 112.406 33.456 112.326 33.52C112.262 33.584 112.23 33.664 112.23 33.76V41.896C112.23 42.2 112.126 42.464 111.918 42.688C111.71 42.896 111.454 43 111.15 43H110.478C110.174 43 109.91 42.896 109.686 42.688C109.478 42.464 109.374 42.2 109.374 41.896V27.88C109.374 27.56 109.478 27.296 109.686 27.088C109.91 26.88 110.174 26.776 110.478 26.776H111.15C111.454 26.776 111.71 26.88 111.918 27.088C112.126 27.296 112.23 27.56 112.23 27.88V30.28C112.23 30.36 112.262 30.432 112.326 30.496C112.406 30.544 112.486 30.568 112.566 30.568H115.398C115.894 30.568 116.342 30.688 116.742 30.928C117.142 31.168 117.462 31.496 117.702 31.912C117.942 32.312 118.062 32.76 118.062 33.256V41.896ZM137.954 28.216L133.298 42.256C133.234 42.464 133.098 42.64 132.89 42.784C132.698 42.928 132.49 43 132.266 43H131.282C131.058 43 130.85 42.928 130.658 42.784C130.482 42.64 130.354 42.464 130.274 42.256L125.618 28.216C125.49 27.864 125.538 27.536 125.762 27.232C125.97 26.928 126.266 26.776 126.65 26.776H127.346C127.874 26.776 128.226 27.024 128.402 27.52L131.642 37.408C131.738 37.52 131.826 37.52 131.906 37.408C132.242 36.368 132.586 35.304 132.938 34.216C133.306 33.112 133.65 32.08 133.97 31.12C134.29 30.144 134.554 29.336 134.762 28.696L135.146 27.52C135.226 27.296 135.362 27.12 135.554 26.992C135.762 26.848 135.978 26.776 136.202 26.776H136.898C137.282 26.776 137.578 26.928 137.786 27.232C138.01 27.52 138.066 27.848 137.954 28.216ZM147.406 40.312C147.406 41.064 147.142 41.704 146.614 42.232C146.102 42.744 145.478 43 144.742 43H141.406C140.67 43 140.038 42.744 139.51 42.232C138.982 41.704 138.718 41.064 138.718 40.312V33.256C138.718 32.76 138.838 32.312 139.078 31.912C139.334 31.496 139.662 31.168 140.062 30.928C140.462 30.688 140.91 30.568 141.406 30.568H144.742C145.238 30.568 145.686 30.688 146.086 30.928C146.486 31.168 146.806 31.496 147.046 31.912C147.286 32.312 147.406 32.76 147.406 33.256V40.312ZM144.574 39.856V33.76C144.574 33.664 144.534 33.584 144.454 33.52C144.39 33.456 144.318 33.424 144.238 33.424H141.91C141.83 33.424 141.75 33.456 141.67 33.52C141.606 33.584 141.574 33.664 141.574 33.76V39.856C141.574 39.936 141.606 40.008 141.67 40.072C141.75 40.136 141.83 40.168 141.91 40.168H144.238C144.318 40.168 144.39 40.136 144.454 40.072C144.534 40.008 144.574 39.936 144.574 39.856ZM153.726 41.896C153.726 42.2 153.614 42.464 153.39 42.688C153.182 42.896 152.926 43 152.622 43H152.022C151.286 43 150.654 42.744 150.126 42.232C149.598 41.704 149.334 41.064 149.334 40.312V27.88C149.334 27.56 149.438 27.296 149.646 27.088C149.87 26.88 150.134 26.776 150.438 26.776H151.11C151.414 26.776 151.67 26.88 151.878 27.088C152.102 27.296 152.214 27.56 152.214 27.88V39.856C152.214 40.064 152.31 40.168 152.502 40.168H152.622C152.926 40.168 153.182 40.272 153.39 40.48C153.614 40.688 153.726 40.952 153.726 41.272V41.896ZM159.984 41.896C159.984 42.2 159.872 42.464 159.648 42.688C159.44 42.896 159.184 43 158.88 43H158.28C157.544 43 156.912 42.744 156.384 42.232C155.856 41.704 155.592 41.064 155.592 40.312V27.88C155.592 27.56 155.696 27.296 155.904 27.088C156.128 26.88 156.392 26.776 156.696 26.776H157.368C157.672 26.776 157.928 26.88 158.136 27.088C158.36 27.296 158.472 27.56 158.472 27.88V39.856C158.472 40.064 158.568 40.168 158.76 40.168H158.88C159.184 40.168 159.44 40.272 159.648 40.48C159.872 40.688 159.984 40.952 159.984 41.272V41.896ZM170.562 35.872C170.562 36.352 170.442 36.8 170.202 37.216C169.962 37.616 169.642 37.944 169.242 38.2C168.842 38.44 168.394 38.56 167.898 38.56H165.066C164.986 38.56 164.906 38.592 164.826 38.656C164.762 38.704 164.73 38.768 164.73 38.848V39.856C164.73 39.936 164.762 40.008 164.826 40.072C164.906 40.136 164.986 40.168 165.066 40.168H167.898C168.202 40.168 168.458 40.272 168.666 40.48C168.89 40.688 169.002 40.952 169.002 41.272V41.896C169.002 42.2 168.89 42.464 168.666 42.688C168.458 42.896 168.202 43 167.898 43H164.562C163.826 43 163.194 42.744 162.666 42.232C162.138 41.704 161.874 41.064 161.874 40.312V33.256C161.874 32.76 161.994 32.312 162.234 31.912C162.49 31.512 162.818 31.192 163.218 30.952C163.618 30.696 164.066 30.568 164.562 30.568H167.898C168.394 30.568 168.842 30.696 169.242 30.952C169.642 31.192 169.962 31.512 170.202 31.912C170.442 32.312 170.562 32.76 170.562 33.256V35.872ZM167.73 35.392V33.76C167.73 33.664 167.69 33.584 167.61 33.52C167.546 33.456 167.474 33.424 167.394 33.424H165.066C164.986 33.424 164.906 33.456 164.826 33.52C164.762 33.584 164.73 33.664 164.73 33.76V35.392C164.73 35.456 164.762 35.52 164.826 35.584C164.906 35.648 164.986 35.68 165.066 35.68H167.394C167.474 35.68 167.546 35.648 167.61 35.584C167.69 35.52 167.73 35.456 167.73 35.392ZM180.555 31.96L177.267 44.584C177.091 45.24 176.731 45.776 176.187 46.192C175.643 46.624 175.019 46.84 174.315 46.84H173.643C173.339 46.84 173.075 46.728 172.851 46.504C172.643 46.296 172.539 46.04 172.539 45.736V45.064C172.539 44.76 172.643 44.504 172.851 44.296C173.075 44.088 173.339 43.984 173.643 43.984H174.315C174.411 43.984 174.475 43.936 174.507 43.84L175.035 41.776C175.083 41.648 175.083 41.512 175.035 41.368L172.587 31.96C172.459 31.592 172.523 31.28 172.779 31.024C172.987 30.72 173.267 30.568 173.619 30.568H174.315C174.571 30.568 174.795 30.648 174.987 30.808C175.179 30.952 175.307 31.152 175.371 31.408L176.451 35.512C176.467 35.576 176.507 35.608 176.571 35.608C176.635 35.608 176.675 35.576 176.691 35.512L177.771 31.408C177.851 31.152 177.979 30.952 178.155 30.808C178.347 30.648 178.563 30.568 178.803 30.568H179.499C179.867 30.568 180.155 30.72 180.363 31.024C180.603 31.28 180.667 31.592 180.555 31.96ZM191.211 40.312C191.211 41.064 190.947 41.704 190.419 42.232C189.907 42.744 189.283 43 188.547 43H185.211C184.475 43 183.843 42.744 183.315 42.232C182.787 41.704 182.523 41.064 182.523 40.312V27.88C182.523 27.56 182.627 27.296 182.835 27.088C183.059 26.88 183.323 26.776 183.627 26.776H184.299C184.603 26.776 184.859 26.88 185.067 27.088C185.275 27.296 185.379 27.56 185.379 27.88V30.28C185.379 30.36 185.411 30.432 185.475 30.496C185.555 30.544 185.635 30.568 185.715 30.568H188.547C189.043 30.568 189.491 30.688 189.891 30.928C190.291 31.168 190.611 31.496 190.851 31.912C191.091 32.312 191.211 32.76 191.211 33.256V40.312ZM188.379 39.856V33.76C188.379 33.536 188.267 33.424 188.043 33.424H185.715C185.635 33.424 185.555 33.456 185.475 33.52C185.411 33.584 185.379 33.664 185.379 33.76V39.856C185.379 39.936 185.411 40.008 185.475 40.072C185.555 40.136 185.635 40.168 185.715 40.168H188.043C188.267 40.168 188.379 40.064 188.379 39.856ZM201.851 40.312C201.851 41.064 201.587 41.704 201.059 42.232C200.547 42.744 199.923 43 199.187 43H195.851C195.115 43 194.483 42.744 193.955 42.232C193.427 41.704 193.163 41.064 193.163 40.312V37.696C193.163 37.2 193.283 36.76 193.523 36.376C193.779 35.976 194.107 35.656 194.507 35.416C194.907 35.176 195.355 35.056 195.851 35.056H198.683C198.763 35.056 198.835 35.024 198.899 34.96C198.979 34.896 199.019 34.816 199.019 34.72V33.76C199.019 33.664 198.979 33.584 198.899 33.52C198.835 33.456 198.763 33.424 198.683 33.424H195.851C195.547 33.424 195.283 33.32 195.059 33.112C194.851 32.904 194.747 32.648 194.747 32.344V31.696C194.747 31.376 194.851 31.112 195.059 30.904C195.283 30.68 195.547 30.568 195.851 30.568H199.187C199.683 30.568 200.131 30.688 200.531 30.928C200.931 31.168 201.251 31.496 201.491 31.912C201.731 32.312 201.851 32.76 201.851 33.256V40.312ZM199.019 39.856V38.2C199.019 38.12 198.979 38.048 198.899 37.984C198.835 37.92 198.763 37.888 198.683 37.888H196.355C196.275 37.888 196.195 37.92 196.115 37.984C196.051 38.048 196.019 38.12 196.019 38.2V39.856C196.019 39.936 196.051 40.008 196.115 40.072C196.195 40.136 196.275 40.168 196.355 40.168H198.683C198.763 40.168 198.835 40.136 198.899 40.072C198.979 40.008 199.019 39.936 199.019 39.856ZM208.172 41.896C208.172 42.2 208.06 42.464 207.836 42.688C207.628 42.896 207.372 43 207.068 43H206.468C205.732 43 205.1 42.744 204.572 42.232C204.044 41.704 203.78 41.064 203.78 40.312V27.88C203.78 27.56 203.884 27.296 204.092 27.088C204.316 26.88 204.58 26.776 204.884 26.776H205.556C205.86 26.776 206.116 26.88 206.324 27.088C206.548 27.296 206.66 27.56 206.66 27.88V39.856C206.66 40.064 206.756 40.168 206.948 40.168H207.068C207.372 40.168 207.628 40.272 207.836 40.48C208.06 40.688 208.172 40.952 208.172 41.272V41.896ZM214.43 41.896C214.43 42.2 214.318 42.464 214.094 42.688C213.886 42.896 213.63 43 213.326 43H212.726C211.99 43 211.358 42.744 210.83 42.232C210.302 41.704 210.038 41.064 210.038 40.312V27.88C210.038 27.56 210.142 27.296 210.35 27.088C210.574 26.88 210.838 26.776 211.142 26.776H211.814C212.118 26.776 212.374 26.88 212.582 27.088C212.806 27.296 212.918 27.56 212.918 27.88V39.856C212.918 40.064 213.014 40.168 213.206 40.168H213.326C213.63 40.168 213.886 40.272 214.094 40.48C214.318 40.688 214.43 40.952 214.43 41.272V41.896Z" fill="#E3425C"/>
<path d="M52.79 60.152C52.79 60.488 52.706 60.796 52.538 61.076C52.37 61.356 52.146 61.58 51.866 61.748C51.586 61.916 51.278 62 50.942 62H48.422C48.086 62 47.7733 61.916 47.484 61.748C47.204 61.58 46.98 61.356 46.812 61.076C46.644 60.796 46.56 60.488 46.56 60.152V54.398C46.56 54.0527 46.644 53.74 46.812 53.46C46.98 53.18 47.204 52.956 47.484 52.788C47.7733 52.62 48.086 52.536 48.422 52.536H50.942C51.278 52.536 51.586 52.62 51.866 52.788C52.146 52.956 52.37 53.18 52.538 53.46C52.706 53.74 52.79 54.0527 52.79 54.398V54.776C52.79 54.9533 52.7293 55.1027 52.608 55.224C52.4867 55.3453 52.3327 55.406 52.146 55.406H51.768C51.5907 55.406 51.4367 55.3453 51.306 55.224C51.1847 55.1027 51.124 54.9533 51.124 54.776V54.398C51.124 54.2673 51.0633 54.202 50.942 54.202H48.422C48.3007 54.202 48.24 54.2673 48.24 54.398V60.152C48.24 60.1987 48.2587 60.2453 48.296 60.292C48.3333 60.3293 48.3753 60.348 48.422 60.348H50.942C50.9887 60.348 51.0307 60.3293 51.068 60.292C51.1053 60.2453 51.124 60.1987 51.124 60.152V59.732C51.124 59.5547 51.1847 59.4053 51.306 59.284C51.4367 59.1533 51.5907 59.088 51.768 59.088H52.146C52.3327 59.088 52.4867 59.1533 52.608 59.284C52.7293 59.4053 52.79 59.5547 52.79 59.732V60.152ZM58.9971 57.842C58.9971 58.122 58.9271 58.3833 58.7871 58.626C58.6471 58.8593 58.4605 59.0507 58.2271 59.2C57.9938 59.34 57.7325 59.41 57.4431 59.41H55.7911C55.7445 59.41 55.6978 59.4287 55.6511 59.466C55.6138 59.494 55.5951 59.5313 55.5951 59.578V60.166C55.5951 60.2127 55.6138 60.2547 55.6511 60.292C55.6978 60.3293 55.7445 60.348 55.7911 60.348H57.4431C57.6205 60.348 57.7698 60.4087 57.8911 60.53C58.0218 60.6513 58.0871 60.8053 58.0871 60.992V61.356C58.0871 61.5333 58.0218 61.6873 57.8911 61.818C57.7698 61.9393 57.6205 62 57.4431 62H55.4971C55.0678 62 54.6991 61.8507 54.3911 61.552C54.0831 61.244 53.9291 60.8707 53.9291 60.432V56.316C53.9291 56.0267 53.9991 55.7653 54.1391 55.532C54.2885 55.2987 54.4798 55.112 54.7131 54.972C54.9465 54.8227 55.2078 54.748 55.4971 54.748H57.4431C57.7325 54.748 57.9938 54.8227 58.2271 54.972C58.4605 55.112 58.6471 55.2987 58.7871 55.532C58.9271 55.7653 58.9971 56.0267 58.9971 56.316V57.842ZM57.3451 57.562V56.61C57.3451 56.554 57.3218 56.5073 57.2751 56.47C57.2378 56.4327 57.1958 56.414 57.1491 56.414H55.7911C55.7445 56.414 55.6978 56.4327 55.6511 56.47C55.6138 56.5073 55.5951 56.554 55.5951 56.61V57.562C55.5951 57.5993 55.6138 57.6367 55.6511 57.674C55.6978 57.7113 55.7445 57.73 55.7911 57.73H57.1491C57.1958 57.73 57.2378 57.7113 57.2751 57.674C57.3218 57.6367 57.3451 57.5993 57.3451 57.562ZM65.2042 61.356C65.2042 61.5333 65.1435 61.6873 65.0222 61.818C64.9008 61.9393 64.7515 62 64.5742 62H64.1822C64.0048 62 63.8555 61.9393 63.7342 61.818C63.6128 61.6873 63.5522 61.5333 63.5522 61.356V56.61C63.5522 56.554 63.5288 56.5073 63.4822 56.47C63.4448 56.4327 63.4028 56.414 63.3562 56.414H61.9982C61.9515 56.414 61.9048 56.4327 61.8582 56.47C61.8208 56.5073 61.8022 56.554 61.8022 56.61V61.356C61.8022 61.5333 61.7415 61.6873 61.6202 61.818C61.4988 61.9393 61.3495 62 61.1722 62H60.7802C60.6028 62 60.4488 61.9393 60.3182 61.818C60.1968 61.6873 60.1362 61.5333 60.1362 61.356V56.316C60.1362 56.0267 60.2062 55.7653 60.3462 55.532C60.4955 55.2893 60.6868 55.098 60.9202 54.958C61.1535 54.818 61.4148 54.748 61.7042 54.748H63.6502C63.9395 54.748 64.2008 54.818 64.4342 54.958C64.6675 55.098 64.8542 55.2893 64.9942 55.532C65.1342 55.7653 65.2042 56.0267 65.2042 56.316V61.356ZM70.5012 61.356C70.5012 61.5333 70.4405 61.6873 70.3192 61.818C70.1979 61.9393 70.0485 62 69.8712 62H67.9112C67.4819 62 67.1132 61.8507 66.8052 61.552C66.5065 61.244 66.3572 60.8707 66.3572 60.432V53.18C66.3572 52.9933 66.4179 52.8393 66.5392 52.718C66.6605 52.5967 66.8099 52.536 66.9872 52.536H67.3792C67.5565 52.536 67.7059 52.5967 67.8272 52.718C67.9579 52.8393 68.0232 52.9933 68.0232 53.18V54.58C68.0232 54.692 68.0839 54.748 68.2052 54.748H69.8712C70.0485 54.748 70.1979 54.8133 70.3192 54.944C70.4405 55.0653 70.5012 55.2193 70.5012 55.406V55.784C70.5012 55.9427 70.4405 56.092 70.3192 56.232C70.1792 56.3533 70.0299 56.414 69.8712 56.414H68.2052C68.0839 56.414 68.0232 56.4793 68.0232 56.61V60.166C68.0232 60.2873 68.0839 60.348 68.2052 60.348H69.8712C70.0485 60.348 70.1979 60.4087 70.3192 60.53C70.4405 60.6513 70.5012 60.8053 70.5012 60.992V61.356ZM76.7022 57.842C76.7022 58.122 76.6322 58.3833 76.4922 58.626C76.3522 58.8593 76.1656 59.0507 75.9322 59.2C75.6989 59.34 75.4376 59.41 75.1482 59.41H73.4962C73.4496 59.41 73.4029 59.4287 73.3562 59.466C73.3189 59.494 73.3002 59.5313 73.3002 59.578V60.166C73.3002 60.2127 73.3189 60.2547 73.3562 60.292C73.4029 60.3293 73.4496 60.348 73.4962 60.348H75.1482C75.3256 60.348 75.4749 60.4087 75.5962 60.53C75.7269 60.6513 75.7922 60.8053 75.7922 60.992V61.356C75.7922 61.5333 75.7269 61.6873 75.5962 61.818C75.4749 61.9393 75.3256 62 75.1482 62H73.2022C72.7729 62 72.4042 61.8507 72.0962 61.552C71.7882 61.244 71.6342 60.8707 71.6342 60.432V56.316C71.6342 56.0267 71.7042 55.7653 71.8442 55.532C71.9936 55.2987 72.1849 55.112 72.4182 54.972C72.6516 54.8227 72.9129 54.748 73.2022 54.748H75.1482C75.4376 54.748 75.6989 54.8227 75.9322 54.972C76.1656 55.112 76.3522 55.2987 76.4922 55.532C76.6322 55.7653 76.7022 56.0267 76.7022 56.316V57.842ZM75.0502 57.562V56.61C75.0502 56.554 75.0269 56.5073 74.9802 56.47C74.9429 56.4327 74.9009 56.414 74.8542 56.414H73.4962C73.4496 56.414 73.4029 56.4327 73.3562 56.47C73.3189 56.5073 73.3002 56.554 73.3002 56.61V57.562C73.3002 57.5993 73.3189 57.6367 73.3562 57.674C73.4029 57.7113 73.4496 57.73 73.4962 57.73H74.8542C74.9009 57.73 74.9429 57.7113 74.9802 57.674C75.0269 57.6367 75.0502 57.5993 75.0502 57.562ZM81.9993 55.784C81.9993 55.9613 81.9386 56.1107 81.8173 56.232C81.6959 56.3533 81.5466 56.414 81.3693 56.414H79.7033C79.5819 56.414 79.5213 56.4793 79.5213 56.61V61.356C79.5213 61.5333 79.4559 61.6873 79.3253 61.818C79.2039 61.9393 79.0546 62 78.8773 62H78.4853C78.3079 62 78.1586 61.9393 78.0373 61.818C77.9159 61.6873 77.8553 61.5333 77.8553 61.356V56.316C77.8553 56.0267 77.9253 55.7653 78.0653 55.532C78.2053 55.2893 78.3919 55.098 78.6253 54.958C78.8586 54.818 79.1199 54.748 79.4093 54.748H81.3693C81.5466 54.748 81.6959 54.8133 81.8173 54.944C81.9386 55.0653 81.9993 55.2193 81.9993 55.406V55.784Z" fill="#124C66"/>
<defs>
<clipPath id="clip0_4251_165">
<rect width="46" height="66" fill="white"/>
</clipPath>
</defs>
</svg>
