<svg width="13" height="13" viewBox="0 0 13 13" fill="none" xmlns="http://www.w3.org/2000/svg">
<g id="arrow-point-to-right 1" clip-path="url(#clip0_4251_248)">
<g id="Group">
<path id="Vector" d="M3.80199 12.5137C3.59009 12.4584 3.39989 12.3701 3.25856 12.1917C3.02169 11.8927 3.01672 11.4585 3.25546 11.1591C3.30166 11.1011 3.35272 11.0466 3.40519 10.9941C4.86606 9.53267 6.32732 8.07164 7.78892 6.61094C7.82189 6.57801 7.85932 6.54954 7.93616 6.48317C7.87742 6.44864 7.82956 6.43211 7.79729 6.39991C6.32376 4.92897 4.85222 3.45607 3.37872 1.98511C3.11896 1.72577 3.01022 1.42894 3.12156 1.06841C3.28706 0.532539 3.97089 0.315072 4.41503 0.657306C4.46449 0.695406 4.51186 0.736939 4.55602 0.781073C6.25006 2.47427 7.94382 4.16771 9.63702 5.86177C9.95346 6.17837 10.0183 6.57184 9.80792 6.92894C9.75709 7.01521 9.68606 7.09191 9.61466 7.16337C7.96639 8.81381 6.31586 10.4619 4.66882 12.1136C4.48629 12.2966 4.29796 12.4599 4.03683 12.5138C3.95856 12.5137 3.88026 12.5137 3.80199 12.5137Z" fill="#124C66"/>
</g>
</g>
<defs>
<clipPath id="clip0_4251_248">
<rect width="12" height="12" fill="white" transform="translate(0.5 0.5)"/>
</clipPath>
</defs>
</svg>
