<svg width="13" height="13" viewBox="0 0 13 13" fill="none" xmlns="http://www.w3.org/2000/svg">
<g id="arrow-point-to-right 1" clip-path="url(#clip0_4251_252)">
<g id="Group">
<path id="Vector" d="M9.19801 12.5137C9.40991 12.4584 9.60011 12.3701 9.74144 12.1917C9.97831 11.8927 9.98328 11.4585 9.74454 11.1591C9.69834 11.1011 9.64728 11.0466 9.59481 10.9941C8.13394 9.53267 6.67268 8.07164 5.21108 6.61094C5.17811 6.57801 5.14068 6.54954 5.06384 6.48317C5.12258 6.44864 5.17044 6.43211 5.20271 6.39991C6.67624 4.92897 8.14778 3.45607 9.62128 1.98511C9.88104 1.72577 9.98978 1.42894 9.87844 1.06841C9.71294 0.532539 9.02911 0.315072 8.58497 0.657306C8.53551 0.695406 8.48814 0.736939 8.44398 0.781073C6.74994 2.47427 5.05618 4.16771 3.36298 5.86177C3.04654 6.17837 2.98171 6.57184 3.19208 6.92894C3.24291 7.01521 3.31394 7.09191 3.38534 7.16337C5.03361 8.81381 6.68414 10.4619 8.33118 12.1136C8.51371 12.2966 8.70204 12.4599 8.96317 12.5138C9.04144 12.5137 9.11974 12.5137 9.19801 12.5137Z" fill="#124C66"/>
</g>
</g>
<defs>
<clipPath id="clip0_4251_252">
<rect width="12" height="12" fill="white" transform="matrix(-1 0 0 1 12.5 0.5)"/>
</clipPath>
</defs>
</svg>
