<svg width="216" height="66" viewBox="0 0 216 66" fill="none" xmlns="http://www.w3.org/2000/svg">
<g clip-path="url(#clip0_4251_582)">
<path d="M45.3117 11.7432C46.1366 11.3344 46.0657 10.3452 45.7258 10.7311C45.5097 10.9763 44.8267 11.3638 44.3549 11.6157C44.3466 11.6215 44.3362 11.6238 44.3262 11.6222C44.3161 11.6205 44.3072 11.6149 44.3012 11.6067C44.2953 11.5984 44.293 11.5882 44.2947 11.5782C44.2964 11.5683 44.302 11.5594 44.3103 11.5535C45.0725 10.8635 46.2504 9.31346 45.9502 9.26441C45.5823 9.21208 43.8484 11.9754 41.6922 12.6C39.5359 13.2246 38.6418 14.8417 35.5881 15.6232C33.9482 16.0434 32.9485 16.6304 32.3711 17.0817L32.3315 17.1046C30.9506 18.0317 27.2981 19.3937 24.9818 19.5327C23.9174 19.5957 22.9082 20.0241 22.1278 20.7443C22.1228 20.7484 22.1169 20.7513 22.1106 20.7527C22.1043 20.7541 22.0977 20.754 22.0915 20.7525C21.7941 20.6575 21.4774 20.6377 21.1703 20.6948C20.8632 20.7519 20.5753 20.8841 20.3328 21.0795C19.6993 21.588 19.4073 21.3133 18.82 21.4261C18.8115 21.4277 18.8027 21.4265 18.795 21.4227C18.7872 21.4188 18.7809 21.4126 18.7771 21.4049L18.5544 20.9258C18.5503 20.9171 18.5497 20.9071 18.5528 20.898C18.5559 20.8889 18.5624 20.8813 18.5709 20.8767C20.5952 19.7322 18.5198 15.8178 17.9605 14.8449C17.9562 14.8393 17.9539 14.8324 17.9539 14.8253C17.9539 14.8182 17.9562 14.8114 17.9605 14.8057C18.0761 14.6582 18.1741 14.498 18.2525 14.3282C19.013 12.721 16.9641 11.5274 15.8059 12.5542C14.6478 13.581 14.072 13.3815 13.0492 13.6039C12.1022 13.8116 12.1732 15.0575 12.188 15.239C12.1884 15.2458 12.187 15.2526 12.1838 15.2587C12.1806 15.2647 12.1758 15.2698 12.1699 15.2733C10.8897 16.0402 12.1187 17.7652 13.0409 18.7953C13.0444 18.7994 13.0469 18.8041 13.0484 18.8092C13.0498 18.8143 13.0502 18.8197 13.0494 18.8249C13.0486 18.8302 13.0467 18.8352 13.0439 18.8397C13.041 18.8441 13.0372 18.848 13.0327 18.8509C12.8397 18.9915 12.7324 19.2924 12.9288 19.706C13.2917 20.4761 13.9665 20.0102 13.9665 20.0102L14.0093 20.0576L15.1873 22.605C15.1896 22.61 15.1908 22.6155 15.1908 22.621C15.1908 22.6265 15.1896 22.6319 15.1873 22.6369C15.1849 22.6419 15.1815 22.6463 15.1772 22.6499C15.1729 22.6534 15.1679 22.6559 15.1625 22.6573C14.9283 22.7178 14.6676 22.7963 14.3508 22.8977C14.2888 22.9186 14.2341 22.9566 14.1932 23.0073C14.1522 23.058 14.1268 23.1193 14.1199 23.1838C14.0753 23.5893 13.8147 24.4756 12.4272 24.8271C12.4272 24.8271 12.4668 24.9089 12.5279 25.0495C12.3827 25.1116 9.3587 26.4131 8.19892 27.0688C7.92011 27.2323 5.77874 27.5789 5.0842 27.7228C5.07629 27.724 5.06821 27.7227 5.06103 27.7192C5.05386 27.7157 5.04791 27.7102 5.04399 27.7033C5.04006 27.6964 5.03833 27.6885 5.03903 27.6806C5.03973 27.6727 5.04282 27.6652 5.0479 27.6591C5.54283 27.1375 7.98776 24.5279 8.58002 23.7888C8.5835 23.7848 8.5878 23.7816 8.59263 23.7793C8.59746 23.7771 8.60272 23.7758 8.60806 23.7757C8.85388 23.7757 11.6535 23.7643 11.6964 23.0825C11.7195 22.695 10.8352 23.1887 10.4096 22.9795C9.98395 22.7702 10.756 21.5439 11.8317 21.4572C12.5081 21.4032 12.5592 20.396 9.47418 20.7737C8.26491 20.9225 7.18103 22.556 6.7125 22.8993C6.24397 23.2427 0.0359579 27.8733 -0.00693567 29.3906C-0.0498292 30.908 1.47784 31.3707 5.27227 31.0764C9.06669 30.7821 9.77939 31.2023 12.2441 30.0217C12.3655 29.964 12.4815 29.8956 12.5906 29.8174C12.597 29.8127 12.6048 29.8102 12.6128 29.8102C12.6208 29.8102 12.6286 29.8127 12.6351 29.8174C13.3643 30.3439 17.7889 33.5895 17.3204 34.5166C17.0383 35.0741 16.771 35.6055 17.0366 35.9293C17.0391 35.9344 17.0404 35.94 17.0404 35.9456C17.0404 35.9513 17.0391 35.9569 17.0366 35.962L16.8024 36.8155H16.6143C16.6143 36.8155 15.4809 41.2155 14.9497 44.2371C14.4185 47.2588 13.5062 49.731 13.7602 50.0041C13.8276 50.1442 13.927 50.2668 14.0506 50.3621C14.0557 50.3669 14.0596 50.3728 14.0619 50.3793C14.0642 50.3859 14.0649 50.3929 14.0638 50.3997L13.2389 54.0656C13.2374 54.0741 13.233 54.0819 13.2263 54.0875C13.2197 54.0932 13.2114 54.0964 13.2026 54.0967C9.81403 54.1114 6.27367 56.5787 4.39295 58.1173C4.38736 58.1216 4.38068 58.1242 4.37367 58.1249C4.36666 58.1256 4.35959 58.1244 4.35325 58.1213C4.34691 58.1183 4.34156 58.1135 4.33779 58.1076C4.33402 58.1017 4.33199 58.0949 4.33191 58.0879C4.33054 57.9699 4.29435 57.8548 4.22781 57.7569C4.16127 57.659 4.06727 57.5825 3.95742 57.5369C3.22493 57.2344 1.93152 56.7553 1.55208 56.9744C1.01426 57.2867 0.692558 61.0327 0.606771 61.86C0.520984 62.6874 -0.140566 62.7708 0.0607035 64.0935C0.261973 65.4163 0.700806 66.2682 1.3904 65.8921C2.08 65.5161 1.85068 63.2956 2.99231 62.6351C4.0696 62.0105 5.18978 61.4905 4.77404 61C4.77005 60.9962 4.76688 60.9916 4.76471 60.9865C4.76254 60.9815 4.76142 60.976 4.76142 60.9705C4.76142 60.965 4.76254 60.9596 4.76471 60.9545C4.76688 60.9495 4.77005 60.9449 4.77404 60.9411C5.90728 60.1661 7.13374 59.5345 8.42494 59.0608C8.43307 59.0582 8.44184 59.0582 8.44993 59.061C8.45802 59.0637 8.465 59.0689 8.46983 59.0759C8.47466 59.0829 8.47707 59.0913 8.47671 59.0997C8.47635 59.1082 8.47324 59.1163 8.46783 59.1229C8.24182 59.4221 7.996 59.7099 8.0158 60.5045C8.0455 61.7521 8.34575 62.5893 9.0304 62.326C9.71504 62.0628 9.76289 59.9797 10.8963 59.5006C11.764 59.1343 12.6533 58.8319 12.7803 58.4607C12.7832 58.4531 12.7884 58.4465 12.7952 58.4419C12.802 58.4372 12.81 58.4346 12.8182 58.4345C13.5722 58.4721 14.1743 58.5441 14.6429 58.4803C15.2186 58.4018 16.0352 57.532 16.8552 56.4365C16.8582 56.4323 16.8622 56.4288 16.8667 56.4262C16.8713 56.4237 16.8764 56.4222 16.8816 56.4217C19.899 56.0735 23.4707 56.1225 23.9408 55.9427C24.5694 55.7039 25.4949 52.3994 25.7556 51.4331C25.7568 51.4287 25.7591 51.4245 25.7621 51.421C25.7651 51.4174 25.7688 51.4146 25.773 51.4125C25.7772 51.4105 25.7818 51.4094 25.7865 51.4093C25.7912 51.4092 25.7958 51.4101 25.8001 51.4119C26.5574 51.5754 27.7485 43.7711 27.0655 37.9192L26.912 37.3273C26.9105 37.3213 26.9104 37.3151 26.9119 37.3091C26.9133 37.3031 26.9162 37.2976 26.9203 37.2929C27.016 37.1867 27.1414 36.7566 26.8692 35.0496C26.5046 32.7605 27.2205 30.0463 25.5906 25.5662C25.5881 25.5613 25.5868 25.556 25.5868 25.5506C25.5868 25.5452 25.5881 25.5399 25.5906 25.5351C25.9585 24.935 25.3745 23.1724 26.8428 22.8895C28.4463 22.5805 30.6289 21.521 31.8316 20.9912C33.0343 20.4614 34.1 20.0641 34.1 20.0641C38.0726 18.6138 40.7667 14.6683 40.9597 14.3822C40.9632 14.3768 40.9681 14.3724 40.9739 14.3696C40.9797 14.3667 40.9862 14.3654 40.9927 14.3659C43.5448 14.4084 42.8701 13.4257 44.0827 13.4257C45.2952 13.4257 45.8578 13.0889 45.6879 12.9188C45.5179 12.7488 44.0827 13.0153 43.8632 12.7749C43.6438 12.5346 44.4852 12.1487 45.3117 11.7432ZM19.7175 51.9662C19.8082 51.8026 19.7175 51.989 19.7719 51.8795L20.252 51.9122C20.3064 51.9236 20.3262 51.9302 20.3262 51.9302L20.7997 50.3098C20.8278 50.3229 20.8146 50.2967 20.8443 50.3098C20.874 50.3229 20.8624 50.1676 20.874 50.1741L20.4714 52.0021C20.47 52.0108 20.4656 52.0188 20.459 52.0247C20.4524 52.0307 20.444 52.0342 20.4351 52.0348C20.2124 52.0316 20.1266 51.8403 19.7175 51.9547V51.9662Z" fill="#F9EEDC"/>
<path d="M35.2621 4.28699C35.2619 3.76781 35.164 3.25322 34.9734 2.76964C34.9618 2.73857 34.9486 2.70587 34.9354 2.6748C34.9107 2.61594 34.8859 2.55871 34.8579 2.50148C34.8431 2.47042 34.8282 2.44099 34.8117 2.40992C34.7189 2.22545 34.6119 2.04834 34.4917 1.88015L34.4191 1.77714C34.3844 1.733 34.3514 1.69048 34.3151 1.64797C34.2788 1.60546 34.2541 1.57439 34.2227 1.54006C34.1914 1.50572 34.1568 1.46157 34.1221 1.4256C34.0594 1.35856 33.9951 1.2948 33.9291 1.23266L33.8384 1.15254C33.7922 1.11167 33.7443 1.07242 33.6965 1.03318C33.6486 0.993941 33.6288 0.979225 33.5942 0.954699C33.5595 0.930173 33.5199 0.897471 33.4804 0.869675L33.4606 0.856594L33.4391 0.841878L33.3467 0.77811L33.2741 0.733963L33.2461 0.715977L33.2049 0.691451L33.1405 0.655479C33.124 0.655479 33.1075 0.635858 33.091 0.626047L33.0564 0.608062L33.03 0.594981C32.9887 0.573725 32.9475 0.550834 32.9046 0.531213L32.8386 0.498511L32.8073 0.483796L32.7512 0.45927C32.7211 0.444522 32.6903 0.431422 32.6588 0.420028L32.6076 0.398771L32.5367 0.370975L32.4047 0.323558L32.3701 0.310478L32.281 0.284316C32.2348 0.2696 32.1886 0.254884 32.1424 0.243439H32.1226C31.3752 0.0436719 30.5868 0.0521489 29.8439 0.267936C29.1011 0.483724 28.4328 0.898455 27.9124 1.46648H27.8976C27.8745 1.49264 27.8531 1.52207 27.83 1.54823C27.8069 1.57439 27.7524 1.63816 27.7145 1.68394C27.6765 1.72973 27.627 1.7984 27.5858 1.85726C27.5446 1.91613 27.5165 1.9521 27.4835 2.00278C27.4505 2.05347 27.4076 2.12542 27.3713 2.18755C27.335 2.24968 27.3103 2.28892 27.2839 2.34125C27.2575 2.39357 27.2179 2.47369 27.1866 2.54073C27.1552 2.60776 27.1371 2.64537 27.114 2.70423C27.0909 2.7631 27.0612 2.84649 27.0348 2.91843C27.0216 2.95604 27.0067 2.99201 26.9935 3.02961C26.9935 3.04433 26.9935 3.05905 26.9803 3.07376C26.9671 3.11464 26.9572 3.15715 26.9457 3.19803C26.9341 3.2389 26.9308 3.25199 26.9242 3.27978C26.9235 3.28575 26.9235 3.2918 26.9242 3.29777C26.916 3.32883 26.9094 3.3599 26.9028 3.39097C26.8962 3.42203 26.8913 3.44002 26.8863 3.46455L26.8764 3.51523C26.8764 3.53649 26.8764 3.55938 26.8649 3.58227C26.8533 3.60516 26.8517 3.66239 26.8467 3.70163C26.8418 3.74087 26.8352 3.78175 26.8319 3.82263C26.8311 3.83842 26.8311 3.85425 26.8319 3.87005C26.8319 3.88476 26.8319 3.90111 26.8319 3.91746C26.8319 3.93381 26.8319 3.96652 26.8319 3.99104C26.8319 4.08751 26.8203 4.18562 26.8203 4.28536C26.8203 4.3851 26.8203 4.47175 26.8302 4.56332C26.8982 5.6261 27.3719 6.62334 28.1552 7.35229C28.9385 8.08123 29.9725 8.48715 31.047 8.48751C31.1113 8.48751 31.174 8.48751 31.2383 8.48751L31.4561 8.4728H31.4809C31.5485 8.4728 31.6145 8.45808 31.6805 8.44827H31.7234L31.9048 8.41557L31.9642 8.40249L32.1292 8.36325L32.2051 8.34199L32.3503 8.29948L32.446 8.26678L32.568 8.22263L32.6918 8.17194L32.7825 8.13433L32.8469 8.1049L32.9095 8.0722C32.9376 8.05912 32.9656 8.04767 32.992 8.03296C33.6815 7.67593 34.2582 7.13733 34.6587 6.47643C35.0592 5.81552 35.268 5.05792 35.2621 4.28699Z" fill="#E3425C"/>
<path d="M32.1631 0.14896C32.1527 0.143976 32.1415 0.140664 32.1301 0.13915C30.979 -0.198391 29.7398 -0.0694923 28.6845 0.497556C27.6291 1.0646 26.8439 2.02347 26.5012 3.1637C26.1584 4.30393 26.2861 5.53236 26.8562 6.57937C27.4264 7.62638 28.3923 8.40643 29.5422 8.7483C30.692 9.09018 31.9317 8.96595 32.9891 8.40288C34.0466 7.83981 34.8355 6.88391 35.1826 5.74498C35.5298 4.60605 35.4068 3.37715 34.8407 2.32799C34.2745 1.27884 33.3116 0.495163 32.1631 0.14896ZM34.0834 1.5257C34.4309 1.9004 34.7055 2.33556 34.8934 2.80924C34.9292 2.90365 34.9438 3.00462 34.9363 3.10518C34.8885 3.75922 34.547 6.24617 32.0921 7.48066L32.0723 7.4921L31.9338 7.55751C31.8603 7.58394 31.7805 7.58849 31.7045 7.57059C31.6649 7.54933 31.6269 7.52808 31.5873 7.50355L31.4916 7.44142C31.2699 7.28405 31.0697 7.09883 30.8961 6.89039C30.8843 6.87856 30.8756 6.86398 30.871 6.84799C30.8663 6.83201 30.8658 6.81512 30.8694 6.79886C30.873 6.78261 30.8806 6.76751 30.8916 6.75494C30.9026 6.74237 30.9166 6.73272 30.9324 6.72689C31.4105 6.4999 31.8409 6.18535 32.201 5.7998C32.8609 5.09998 33.6858 3.80827 33.9201 1.57638C33.9223 1.55864 33.9296 1.54191 33.9412 1.52818C33.9528 1.51446 33.9681 1.50432 33.9853 1.49898C34.0025 1.49363 34.0209 1.49331 34.0383 1.49805C34.0557 1.50279 34.0713 1.51238 34.0834 1.5257ZM32.2604 0.587162C32.2595 0.563849 32.2642 0.540653 32.2743 0.519575C32.2844 0.498497 32.2995 0.480168 32.3184 0.466169C32.3372 0.452169 32.3592 0.442919 32.3824 0.439216C32.4057 0.435512 32.4295 0.437466 32.4518 0.44491C32.8884 0.604524 33.2949 0.835546 33.6545 1.12837C33.6862 1.15508 33.7111 1.18886 33.7272 1.22694C33.7432 1.26502 33.75 1.30632 33.7468 1.34747C33.4268 5.09671 31.4553 6.28051 30.8185 6.56828C30.7791 6.58542 30.735 6.5891 30.6932 6.57874C30.6514 6.56839 30.6143 6.54458 30.5876 6.51106C30.2298 6.01501 29.9475 5.46963 29.7495 4.89233C29.7361 4.85532 29.7353 4.81498 29.7472 4.77748C29.7591 4.73998 29.7831 4.70738 29.8155 4.68467C31.3217 3.60879 31.9008 2.48058 32.1251 1.7121C32.2295 1.34648 32.2752 0.966854 32.2604 0.587162ZM31.0281 0.196378C31.3119 0.196579 31.595 0.22617 31.8727 0.284672C31.9221 0.295506 31.9667 0.321911 31.9997 0.359934C32.0327 0.397956 32.0524 0.445552 32.0558 0.495597C32.076 0.804689 32.0526 1.11505 31.9866 1.41778C31.9829 1.43269 31.9755 1.44642 31.965 1.45768C31.9545 1.46893 31.9412 1.47733 31.9265 1.48209C31.9118 1.48684 31.8961 1.48778 31.8809 1.48483C31.8657 1.48187 31.8515 1.47511 31.8397 1.4652C31.4782 1.17953 31.0568 0.977543 30.6064 0.874004C30.156 0.770464 29.6879 0.76799 29.2364 0.86676C29.0962 0.892922 28.9642 0.925623 28.8405 0.961595C28.7893 0.961595 28.7019 0.941974 28.7943 0.848774C29.4602 0.423161 30.2357 0.196666 31.0281 0.196378ZM27.1643 2.79943C27.3305 2.3888 27.5623 2.00732 27.8506 1.66958C27.9294 1.57555 28.0264 1.49825 28.136 1.44231C28.697 1.16107 30.4176 0.46126 31.8364 1.70719C31.8533 1.72159 31.8651 1.7408 31.8705 1.76218C31.8758 1.78357 31.8743 1.80606 31.8661 1.82655C31.7572 2.11678 31.6271 2.39876 31.4768 2.67025C31.4577 2.70027 31.4276 2.72181 31.3929 2.73034C31.3581 2.73888 31.3214 2.73375 31.2904 2.71604C29.6109 1.8102 28.0321 2.47895 27.2881 2.91388C27.2716 2.92179 27.2531 2.92457 27.235 2.92185C27.2169 2.91914 27.2 2.91106 27.1866 2.89868C27.1732 2.88629 27.164 2.87019 27.16 2.85247C27.156 2.83476 27.1575 2.81627 27.1643 2.79943ZM26.8707 4.271C26.8738 4.05174 26.8942 3.83306 26.9317 3.61697C26.9468 3.5279 26.98 3.44281 27.0293 3.3669C27.0787 3.29099 27.1431 3.22586 27.2188 3.17549C27.7978 2.79615 29.3866 1.96063 31.1006 2.83049C31.1259 2.84288 31.1481 2.86064 31.1656 2.8825C31.1831 2.90436 31.1955 2.92979 31.202 2.95697C31.2085 2.98415 31.2088 3.0124 31.203 3.03972C31.1971 3.06704 31.1853 3.09274 31.1683 3.115C30.7643 3.63631 30.2845 4.09532 29.7446 4.47702C29.6932 4.51298 29.6329 4.53455 29.5702 4.53944C29.5075 4.54433 29.4446 4.53237 29.3882 4.50481C28.1707 3.926 27.3557 4.14837 26.9812 4.33149C26.8872 4.38545 26.8674 4.34294 26.8707 4.27754V4.271ZM30.4226 8.38976C29.5147 8.25494 28.6773 7.82631 28.0409 7.17066C27.4044 6.515 27.0046 5.66912 26.9037 4.76479C26.8991 4.72152 26.9077 4.67788 26.9283 4.63944C26.9488 4.60101 26.9805 4.56951 27.0192 4.54896C27.1747 4.46965 27.3416 4.41451 27.5141 4.38545C27.5409 4.38099 27.5684 4.38677 27.5911 4.40165C27.6137 4.41652 27.6299 4.43937 27.6362 4.46557C27.7764 5.06728 28.4214 7.29589 30.4539 8.31291C30.4607 8.31898 30.4654 8.32696 30.4675 8.33577C30.4695 8.34458 30.4688 8.3538 30.4653 8.36219C30.4619 8.37057 30.456 8.37771 30.4483 8.38264C30.4407 8.38757 30.4317 8.39006 30.4226 8.38976ZM32.3792 8.21154C32.0964 8.30768 31.8037 8.37239 31.5065 8.40448C31.3601 8.42087 31.2119 8.40467 31.0726 8.35706C28.7283 7.53952 27.9942 5.11797 27.8325 4.44759C27.8298 4.4352 27.8299 4.4224 27.8328 4.41006C27.8357 4.39773 27.8412 4.38617 27.8491 4.3762C27.857 4.36622 27.8669 4.35808 27.8783 4.35233C27.8897 4.34658 27.9022 4.34338 27.915 4.34294C28.4123 4.35715 28.8997 4.48353 29.3404 4.71247C29.4286 4.77919 29.5026 4.86255 29.5581 4.95773C29.6984 5.35178 30.0531 6.23146 30.5711 6.79883L30.6503 6.90184C30.6496 6.90673 30.6496 6.91167 30.6503 6.91656C30.8486 7.18746 31.0951 7.42019 31.3778 7.60329L31.4174 7.63109L31.4982 7.68177L31.5593 7.71611C31.8158 7.86318 32.0881 7.98162 32.371 8.06929C32.387 8.07287 32.4013 8.08161 32.4118 8.09413C32.4222 8.10666 32.4282 8.12227 32.4288 8.13852C32.4294 8.15477 32.4245 8.17075 32.4149 8.18396C32.4053 8.19718 32.3916 8.20687 32.3759 8.21154H32.3792ZM32.9748 7.9532C32.9161 7.98431 32.8478 7.99248 32.7834 7.97609C32.5851 7.92911 32.39 7.86958 32.1994 7.79786C32.1849 7.79167 32.1725 7.7814 32.1638 7.76832C32.1552 7.75525 32.1505 7.73994 32.1505 7.72429C32.1505 7.70863 32.1552 7.69332 32.1638 7.68025C32.1725 7.66717 32.1849 7.6569 32.1994 7.65071C34.255 6.60916 34.8769 4.737 35.0584 3.69872C35.0716 3.6513 35.0963 3.60061 35.1326 3.71834C35.1616 3.91668 35.1792 4.11647 35.1854 4.31678C35.1843 5.06502 34.9776 5.79884 34.5876 6.43949C34.1976 7.08014 33.6389 7.60342 32.9715 7.9532H32.9748Z" fill="#124C66"/>
</g>
<path d="M57.952 39.832C57.952 40.408 57.808 40.936 57.52 41.416C57.232 41.896 56.848 42.28 56.368 42.568C55.888 42.856 55.36 43 54.784 43H50.176C49.6 43 49.064 42.856 48.568 42.568C48.088 42.28 47.704 41.896 47.416 41.416C47.128 40.936 46.984 40.408 46.984 39.832V39.112C46.984 38.808 47.088 38.552 47.296 38.344C47.52 38.12 47.784 38.008 48.088 38.008H48.76C49.048 38.008 49.296 38.12 49.504 38.344C49.728 38.552 49.84 38.808 49.84 39.112V39.832C49.84 39.912 49.872 39.992 49.936 40.072C50.016 40.136 50.096 40.168 50.176 40.168H54.784C54.864 40.168 54.936 40.136 55 40.072C55.064 39.992 55.096 39.912 55.096 39.832V37.648C55.096 37.472 55.016 37.36 54.856 37.312L49.096 35.152C48.456 34.928 47.944 34.536 47.56 33.976C47.176 33.416 46.984 32.8 46.984 32.128V29.968C46.984 29.376 47.128 28.84 47.416 28.36C47.704 27.88 48.088 27.496 48.568 27.208C49.064 26.92 49.6 26.776 50.176 26.776H54.784C55.36 26.776 55.888 26.92 56.368 27.208C56.848 27.496 57.232 27.88 57.52 28.36C57.808 28.84 57.952 29.376 57.952 29.968V30.616C57.952 30.92 57.84 31.176 57.616 31.384C57.408 31.592 57.152 31.696 56.848 31.696H56.2C55.896 31.696 55.632 31.592 55.408 31.384C55.2 31.176 55.096 30.92 55.096 30.616V29.968C55.096 29.744 54.992 29.632 54.784 29.632H50.176C50.096 29.632 50.016 29.664 49.936 29.728C49.872 29.792 49.84 29.872 49.84 29.968V32.128C49.84 32.32 49.92 32.44 50.08 32.488L55.864 34.648C56.488 34.872 56.992 35.264 57.376 35.824C57.76 36.384 57.952 36.992 57.952 37.648V39.832ZM68.4895 42.328C68.3135 42.776 67.9855 43 67.5055 43H66.6175C66.2975 43 66.0175 42.88 65.7775 42.64L62.9695 39.544C62.9535 39.512 62.9135 39.504 62.8495 39.52C62.8015 39.536 62.7775 39.576 62.7775 39.64V41.896C62.7775 42.2 62.6655 42.464 62.4415 42.688C62.2335 42.896 61.9775 43 61.6735 43H61.0015C60.6975 43 60.4335 42.896 60.2095 42.688C60.0015 42.464 59.8975 42.2 59.8975 41.896V27.88C59.8975 27.56 60.0015 27.296 60.2095 27.088C60.4335 26.88 60.6975 26.776 61.0015 26.776H61.6735C61.9775 26.776 62.2335 26.88 62.4415 27.088C62.6655 27.296 62.7775 27.56 62.7775 27.88V33.952C62.7775 34 62.8015 34.04 62.8495 34.072C62.9135 34.088 62.9535 34.072 62.9695 34.024L65.5135 31.264C65.7215 31.024 65.9855 30.904 66.3055 30.904H67.1935C67.6575 30.904 67.9935 31.128 68.2015 31.576C68.2815 31.768 68.3055 31.976 68.2735 32.2C68.2415 32.408 68.1535 32.584 68.0095 32.728L64.5295 36.568C64.4655 36.632 64.4335 36.712 64.4335 36.808C64.4335 36.888 64.4655 36.952 64.5295 37L68.2975 41.152C68.4415 41.312 68.5295 41.504 68.5615 41.728C68.6095 41.936 68.5855 42.136 68.4895 42.328ZM78.5781 31.96L75.2901 44.584C75.1141 45.24 74.7541 45.776 74.2101 46.192C73.6661 46.624 73.0421 46.84 72.3381 46.84H71.6661C71.3621 46.84 71.0981 46.728 70.8741 46.504C70.6661 46.296 70.5621 46.04 70.5621 45.736V45.064C70.5621 44.76 70.6661 44.504 70.8741 44.296C71.0981 44.088 71.3621 43.984 71.6661 43.984H72.3381C72.4341 43.984 72.4981 43.936 72.5301 43.84L73.0581 41.776C73.1061 41.648 73.1061 41.512 73.0581 41.368L70.6101 31.96C70.4821 31.592 70.5461 31.28 70.8021 31.024C71.0101 30.72 71.2901 30.568 71.6421 30.568H72.3381C72.5941 30.568 72.8181 30.648 73.0101 30.808C73.2021 30.952 73.3301 31.152 73.3941 31.408L74.4741 35.512C74.4901 35.576 74.5301 35.608 74.5941 35.608C74.6581 35.608 74.6981 35.576 74.7141 35.512L75.7941 31.408C75.8741 31.152 76.0021 30.952 76.1781 30.808C76.3701 30.648 76.5861 30.568 76.8261 30.568H77.5221C77.8901 30.568 78.1781 30.72 78.3861 31.024C78.6261 31.28 78.6901 31.592 78.5781 31.96ZM91.2259 41.896C91.2259 42.2 91.1219 42.464 90.9139 42.688C90.7059 42.896 90.4419 43 90.1219 43H89.4739C89.1699 43 88.9059 42.896 88.6819 42.688C88.4739 42.464 88.3699 42.2 88.3699 41.896V36.616C88.3699 36.424 88.2659 36.328 88.0579 36.328H83.7379C83.5299 36.328 83.4259 36.424 83.4259 36.616V41.896C83.4259 42.2 83.3139 42.464 83.0899 42.688C82.8819 42.896 82.6259 43 82.3219 43H81.6499C81.3459 43 81.0819 42.896 80.8579 42.688C80.6499 42.464 80.5459 42.2 80.5459 41.896V27.88C80.5459 27.56 80.6499 27.296 80.8579 27.088C81.0819 26.88 81.3459 26.776 81.6499 26.776H82.3219C82.6259 26.776 82.8819 26.88 83.0899 27.088C83.3139 27.296 83.4259 27.56 83.4259 27.88V33.136C83.4259 33.36 83.5299 33.472 83.7379 33.472H88.0579C88.2659 33.472 88.3699 33.36 88.3699 33.136V27.88C88.3699 27.56 88.4739 27.296 88.6819 27.088C88.9059 26.88 89.1699 26.776 89.4739 26.776H90.1219C90.4419 26.776 90.7059 26.88 90.9139 27.088C91.1219 27.296 91.2259 27.56 91.2259 27.88V41.896ZM96.8028 28.312C96.8028 28.808 96.6188 29.24 96.2508 29.608C95.8988 29.96 95.4828 30.136 95.0028 30.136C94.5068 30.136 94.0748 29.96 93.7068 29.608C93.3548 29.24 93.1788 28.808 93.1788 28.312C93.1788 27.832 93.3548 27.416 93.7068 27.064C94.0748 26.696 94.5068 26.512 95.0028 26.512C95.4828 26.512 95.8988 26.696 96.2508 27.064C96.6188 27.416 96.8028 27.832 96.8028 28.312ZM96.4188 41.896C96.4188 42.2 96.3068 42.464 96.0828 42.688C95.8748 42.896 95.6188 43 95.3148 43H94.6668C94.3628 43 94.0988 42.896 93.8748 42.688C93.6668 42.464 93.5628 42.2 93.5628 41.896V31.936C93.5628 31.632 93.6668 31.376 93.8748 31.168C94.0988 30.944 94.3628 30.832 94.6668 30.832H95.3148C95.6188 30.832 95.8748 30.944 96.0828 31.168C96.3068 31.376 96.4188 31.632 96.4188 31.936V41.896ZM107.421 44.152C107.421 44.632 107.301 45.072 107.061 45.472C106.821 45.888 106.501 46.216 106.101 46.456C105.701 46.712 105.253 46.84 104.757 46.84H101.421C101.117 46.84 100.853 46.728 100.629 46.504C100.421 46.296 100.317 46.04 100.317 45.736V45.064C100.317 44.76 100.421 44.504 100.629 44.296C100.853 44.088 101.117 43.984 101.421 43.984H104.253C104.333 43.984 104.405 43.952 104.469 43.888C104.549 43.824 104.589 43.752 104.589 43.672V43.312C104.589 43.232 104.549 43.16 104.469 43.096C104.405 43.032 104.333 43 104.253 43H101.421C100.685 43 100.053 42.744 99.5254 42.232C98.9974 41.704 98.7334 41.064 98.7334 40.312V33.256C98.7334 32.76 98.8534 32.312 99.0934 31.912C99.3494 31.496 99.6774 31.168 100.077 30.928C100.477 30.688 100.925 30.568 101.421 30.568H104.757C105.253 30.568 105.701 30.688 106.101 30.928C106.501 31.168 106.821 31.496 107.061 31.912C107.301 32.312 107.421 32.76 107.421 33.256V44.152ZM104.589 39.856V33.76C104.589 33.664 104.549 33.584 104.469 33.52C104.405 33.456 104.333 33.424 104.253 33.424H101.925C101.845 33.424 101.765 33.456 101.685 33.52C101.621 33.584 101.589 33.664 101.589 33.76V39.856C101.589 39.936 101.621 40.008 101.685 40.072C101.765 40.136 101.845 40.168 101.925 40.168H104.253C104.333 40.168 104.405 40.136 104.469 40.072C104.549 40.008 104.589 39.936 104.589 39.856ZM118.062 41.896C118.062 42.2 117.958 42.464 117.75 42.688C117.542 42.896 117.286 43 116.982 43H116.31C116.006 43 115.75 42.896 115.542 42.688C115.334 42.464 115.23 42.2 115.23 41.896V33.76C115.23 33.664 115.19 33.584 115.11 33.52C115.046 33.456 114.974 33.424 114.894 33.424H112.566C112.486 33.424 112.406 33.456 112.326 33.52C112.262 33.584 112.23 33.664 112.23 33.76V41.896C112.23 42.2 112.126 42.464 111.918 42.688C111.71 42.896 111.454 43 111.15 43H110.478C110.174 43 109.91 42.896 109.686 42.688C109.478 42.464 109.374 42.2 109.374 41.896V27.88C109.374 27.56 109.478 27.296 109.686 27.088C109.91 26.88 110.174 26.776 110.478 26.776H111.15C111.454 26.776 111.71 26.88 111.918 27.088C112.126 27.296 112.23 27.56 112.23 27.88V30.28C112.23 30.36 112.262 30.432 112.326 30.496C112.406 30.544 112.486 30.568 112.566 30.568H115.398C115.894 30.568 116.342 30.688 116.742 30.928C117.142 31.168 117.462 31.496 117.702 31.912C117.942 32.312 118.062 32.76 118.062 33.256V41.896ZM137.954 28.216L133.298 42.256C133.234 42.464 133.098 42.64 132.89 42.784C132.698 42.928 132.49 43 132.266 43H131.282C131.058 43 130.85 42.928 130.658 42.784C130.482 42.64 130.354 42.464 130.274 42.256L125.618 28.216C125.49 27.864 125.538 27.536 125.762 27.232C125.97 26.928 126.266 26.776 126.65 26.776H127.346C127.874 26.776 128.226 27.024 128.402 27.52L131.642 37.408C131.738 37.52 131.826 37.52 131.906 37.408C132.242 36.368 132.586 35.304 132.938 34.216C133.306 33.112 133.65 32.08 133.97 31.12C134.29 30.144 134.554 29.336 134.762 28.696L135.146 27.52C135.226 27.296 135.362 27.12 135.554 26.992C135.762 26.848 135.978 26.776 136.202 26.776H136.898C137.282 26.776 137.578 26.928 137.786 27.232C138.01 27.52 138.066 27.848 137.954 28.216ZM147.406 40.312C147.406 41.064 147.142 41.704 146.614 42.232C146.102 42.744 145.478 43 144.742 43H141.406C140.67 43 140.038 42.744 139.51 42.232C138.982 41.704 138.718 41.064 138.718 40.312V33.256C138.718 32.76 138.838 32.312 139.078 31.912C139.334 31.496 139.662 31.168 140.062 30.928C140.462 30.688 140.91 30.568 141.406 30.568H144.742C145.238 30.568 145.686 30.688 146.086 30.928C146.486 31.168 146.806 31.496 147.046 31.912C147.286 32.312 147.406 32.76 147.406 33.256V40.312ZM144.574 39.856V33.76C144.574 33.664 144.534 33.584 144.454 33.52C144.39 33.456 144.318 33.424 144.238 33.424H141.91C141.83 33.424 141.75 33.456 141.67 33.52C141.606 33.584 141.574 33.664 141.574 33.76V39.856C141.574 39.936 141.606 40.008 141.67 40.072C141.75 40.136 141.83 40.168 141.91 40.168H144.238C144.318 40.168 144.39 40.136 144.454 40.072C144.534 40.008 144.574 39.936 144.574 39.856ZM153.726 41.896C153.726 42.2 153.614 42.464 153.39 42.688C153.182 42.896 152.926 43 152.622 43H152.022C151.286 43 150.654 42.744 150.126 42.232C149.598 41.704 149.334 41.064 149.334 40.312V27.88C149.334 27.56 149.438 27.296 149.646 27.088C149.87 26.88 150.134 26.776 150.438 26.776H151.11C151.414 26.776 151.67 26.88 151.878 27.088C152.102 27.296 152.214 27.56 152.214 27.88V39.856C152.214 40.064 152.31 40.168 152.502 40.168H152.622C152.926 40.168 153.182 40.272 153.39 40.48C153.614 40.688 153.726 40.952 153.726 41.272V41.896ZM159.984 41.896C159.984 42.2 159.872 42.464 159.648 42.688C159.44 42.896 159.184 43 158.88 43H158.28C157.544 43 156.912 42.744 156.384 42.232C155.856 41.704 155.592 41.064 155.592 40.312V27.88C155.592 27.56 155.696 27.296 155.904 27.088C156.128 26.88 156.392 26.776 156.696 26.776H157.368C157.672 26.776 157.928 26.88 158.136 27.088C158.36 27.296 158.472 27.56 158.472 27.88V39.856C158.472 40.064 158.568 40.168 158.76 40.168H158.88C159.184 40.168 159.44 40.272 159.648 40.48C159.872 40.688 159.984 40.952 159.984 41.272V41.896ZM170.562 35.872C170.562 36.352 170.442 36.8 170.202 37.216C169.962 37.616 169.642 37.944 169.242 38.2C168.842 38.44 168.394 38.56 167.898 38.56H165.066C164.986 38.56 164.906 38.592 164.826 38.656C164.762 38.704 164.73 38.768 164.73 38.848V39.856C164.73 39.936 164.762 40.008 164.826 40.072C164.906 40.136 164.986 40.168 165.066 40.168H167.898C168.202 40.168 168.458 40.272 168.666 40.48C168.89 40.688 169.002 40.952 169.002 41.272V41.896C169.002 42.2 168.89 42.464 168.666 42.688C168.458 42.896 168.202 43 167.898 43H164.562C163.826 43 163.194 42.744 162.666 42.232C162.138 41.704 161.874 41.064 161.874 40.312V33.256C161.874 32.76 161.994 32.312 162.234 31.912C162.49 31.512 162.818 31.192 163.218 30.952C163.618 30.696 164.066 30.568 164.562 30.568H167.898C168.394 30.568 168.842 30.696 169.242 30.952C169.642 31.192 169.962 31.512 170.202 31.912C170.442 32.312 170.562 32.76 170.562 33.256V35.872ZM167.73 35.392V33.76C167.73 33.664 167.69 33.584 167.61 33.52C167.546 33.456 167.474 33.424 167.394 33.424H165.066C164.986 33.424 164.906 33.456 164.826 33.52C164.762 33.584 164.73 33.664 164.73 33.76V35.392C164.73 35.456 164.762 35.52 164.826 35.584C164.906 35.648 164.986 35.68 165.066 35.68H167.394C167.474 35.68 167.546 35.648 167.61 35.584C167.69 35.52 167.73 35.456 167.73 35.392ZM180.555 31.96L177.267 44.584C177.091 45.24 176.731 45.776 176.187 46.192C175.643 46.624 175.019 46.84 174.315 46.84H173.643C173.339 46.84 173.075 46.728 172.851 46.504C172.643 46.296 172.539 46.04 172.539 45.736V45.064C172.539 44.76 172.643 44.504 172.851 44.296C173.075 44.088 173.339 43.984 173.643 43.984H174.315C174.411 43.984 174.475 43.936 174.507 43.84L175.035 41.776C175.083 41.648 175.083 41.512 175.035 41.368L172.587 31.96C172.459 31.592 172.523 31.28 172.779 31.024C172.987 30.72 173.267 30.568 173.619 30.568H174.315C174.571 30.568 174.795 30.648 174.987 30.808C175.179 30.952 175.307 31.152 175.371 31.408L176.451 35.512C176.467 35.576 176.507 35.608 176.571 35.608C176.635 35.608 176.675 35.576 176.691 35.512L177.771 31.408C177.851 31.152 177.979 30.952 178.155 30.808C178.347 30.648 178.563 30.568 178.803 30.568H179.499C179.867 30.568 180.155 30.72 180.363 31.024C180.603 31.28 180.667 31.592 180.555 31.96ZM191.211 40.312C191.211 41.064 190.947 41.704 190.419 42.232C189.907 42.744 189.283 43 188.547 43H185.211C184.475 43 183.843 42.744 183.315 42.232C182.787 41.704 182.523 41.064 182.523 40.312V27.88C182.523 27.56 182.627 27.296 182.835 27.088C183.059 26.88 183.323 26.776 183.627 26.776H184.299C184.603 26.776 184.859 26.88 185.067 27.088C185.275 27.296 185.379 27.56 185.379 27.88V30.28C185.379 30.36 185.411 30.432 185.475 30.496C185.555 30.544 185.635 30.568 185.715 30.568H188.547C189.043 30.568 189.491 30.688 189.891 30.928C190.291 31.168 190.611 31.496 190.851 31.912C191.091 32.312 191.211 32.76 191.211 33.256V40.312ZM188.379 39.856V33.76C188.379 33.536 188.267 33.424 188.043 33.424H185.715C185.635 33.424 185.555 33.456 185.475 33.52C185.411 33.584 185.379 33.664 185.379 33.76V39.856C185.379 39.936 185.411 40.008 185.475 40.072C185.555 40.136 185.635 40.168 185.715 40.168H188.043C188.267 40.168 188.379 40.064 188.379 39.856ZM201.851 40.312C201.851 41.064 201.587 41.704 201.059 42.232C200.547 42.744 199.923 43 199.187 43H195.851C195.115 43 194.483 42.744 193.955 42.232C193.427 41.704 193.163 41.064 193.163 40.312V37.696C193.163 37.2 193.283 36.76 193.523 36.376C193.779 35.976 194.107 35.656 194.507 35.416C194.907 35.176 195.355 35.056 195.851 35.056H198.683C198.763 35.056 198.835 35.024 198.899 34.96C198.979 34.896 199.019 34.816 199.019 34.72V33.76C199.019 33.664 198.979 33.584 198.899 33.52C198.835 33.456 198.763 33.424 198.683 33.424H195.851C195.547 33.424 195.283 33.32 195.059 33.112C194.851 32.904 194.747 32.648 194.747 32.344V31.696C194.747 31.376 194.851 31.112 195.059 30.904C195.283 30.68 195.547 30.568 195.851 30.568H199.187C199.683 30.568 200.131 30.688 200.531 30.928C200.931 31.168 201.251 31.496 201.491 31.912C201.731 32.312 201.851 32.76 201.851 33.256V40.312ZM199.019 39.856V38.2C199.019 38.12 198.979 38.048 198.899 37.984C198.835 37.92 198.763 37.888 198.683 37.888H196.355C196.275 37.888 196.195 37.92 196.115 37.984C196.051 38.048 196.019 38.12 196.019 38.2V39.856C196.019 39.936 196.051 40.008 196.115 40.072C196.195 40.136 196.275 40.168 196.355 40.168H198.683C198.763 40.168 198.835 40.136 198.899 40.072C198.979 40.008 199.019 39.936 199.019 39.856ZM208.172 41.896C208.172 42.2 208.06 42.464 207.836 42.688C207.628 42.896 207.372 43 207.068 43H206.468C205.732 43 205.1 42.744 204.572 42.232C204.044 41.704 203.78 41.064 203.78 40.312V27.88C203.78 27.56 203.884 27.296 204.092 27.088C204.316 26.88 204.58 26.776 204.884 26.776H205.556C205.86 26.776 206.116 26.88 206.324 27.088C206.548 27.296 206.66 27.56 206.66 27.88V39.856C206.66 40.064 206.756 40.168 206.948 40.168H207.068C207.372 40.168 207.628 40.272 207.836 40.48C208.06 40.688 208.172 40.952 208.172 41.272V41.896ZM214.43 41.896C214.43 42.2 214.318 42.464 214.094 42.688C213.886 42.896 213.63 43 213.326 43H212.726C211.99 43 211.358 42.744 210.83 42.232C210.302 41.704 210.038 41.064 210.038 40.312V27.88C210.038 27.56 210.142 27.296 210.35 27.088C210.574 26.88 210.838 26.776 211.142 26.776H211.814C212.118 26.776 212.374 26.88 212.582 27.088C212.806 27.296 212.918 27.56 212.918 27.88V39.856C212.918 40.064 213.014 40.168 213.206 40.168H213.326C213.63 40.168 213.886 40.272 214.094 40.48C214.318 40.688 214.43 40.952 214.43 41.272V41.896Z" fill="#E3425C"/>
<path d="M52.79 60.152C52.79 60.488 52.706 60.796 52.538 61.076C52.37 61.356 52.146 61.58 51.866 61.748C51.586 61.916 51.278 62 50.942 62H48.422C48.086 62 47.7733 61.916 47.484 61.748C47.204 61.58 46.98 61.356 46.812 61.076C46.644 60.796 46.56 60.488 46.56 60.152V54.398C46.56 54.0527 46.644 53.74 46.812 53.46C46.98 53.18 47.204 52.956 47.484 52.788C47.7733 52.62 48.086 52.536 48.422 52.536H50.942C51.278 52.536 51.586 52.62 51.866 52.788C52.146 52.956 52.37 53.18 52.538 53.46C52.706 53.74 52.79 54.0527 52.79 54.398V54.776C52.79 54.9533 52.7293 55.1027 52.608 55.224C52.4867 55.3453 52.3327 55.406 52.146 55.406H51.768C51.5907 55.406 51.4367 55.3453 51.306 55.224C51.1847 55.1027 51.124 54.9533 51.124 54.776V54.398C51.124 54.2673 51.0633 54.202 50.942 54.202H48.422C48.3007 54.202 48.24 54.2673 48.24 54.398V60.152C48.24 60.1987 48.2587 60.2453 48.296 60.292C48.3333 60.3293 48.3753 60.348 48.422 60.348H50.942C50.9887 60.348 51.0307 60.3293 51.068 60.292C51.1053 60.2453 51.124 60.1987 51.124 60.152V59.732C51.124 59.5547 51.1847 59.4053 51.306 59.284C51.4367 59.1533 51.5907 59.088 51.768 59.088H52.146C52.3327 59.088 52.4867 59.1533 52.608 59.284C52.7293 59.4053 52.79 59.5547 52.79 59.732V60.152ZM58.9971 57.842C58.9971 58.122 58.9271 58.3833 58.7871 58.626C58.6471 58.8593 58.4605 59.0507 58.2271 59.2C57.9938 59.34 57.7325 59.41 57.4431 59.41H55.7911C55.7445 59.41 55.6978 59.4287 55.6511 59.466C55.6138 59.494 55.5951 59.5313 55.5951 59.578V60.166C55.5951 60.2127 55.6138 60.2547 55.6511 60.292C55.6978 60.3293 55.7445 60.348 55.7911 60.348H57.4431C57.6205 60.348 57.7698 60.4087 57.8911 60.53C58.0218 60.6513 58.0871 60.8053 58.0871 60.992V61.356C58.0871 61.5333 58.0218 61.6873 57.8911 61.818C57.7698 61.9393 57.6205 62 57.4431 62H55.4971C55.0678 62 54.6991 61.8507 54.3911 61.552C54.0831 61.244 53.9291 60.8707 53.9291 60.432V56.316C53.9291 56.0267 53.9991 55.7653 54.1391 55.532C54.2885 55.2987 54.4798 55.112 54.7131 54.972C54.9465 54.8227 55.2078 54.748 55.4971 54.748H57.4431C57.7325 54.748 57.9938 54.8227 58.2271 54.972C58.4605 55.112 58.6471 55.2987 58.7871 55.532C58.9271 55.7653 58.9971 56.0267 58.9971 56.316V57.842ZM57.3451 57.562V56.61C57.3451 56.554 57.3218 56.5073 57.2751 56.47C57.2378 56.4327 57.1958 56.414 57.1491 56.414H55.7911C55.7445 56.414 55.6978 56.4327 55.6511 56.47C55.6138 56.5073 55.5951 56.554 55.5951 56.61V57.562C55.5951 57.5993 55.6138 57.6367 55.6511 57.674C55.6978 57.7113 55.7445 57.73 55.7911 57.73H57.1491C57.1958 57.73 57.2378 57.7113 57.2751 57.674C57.3218 57.6367 57.3451 57.5993 57.3451 57.562ZM65.2042 61.356C65.2042 61.5333 65.1435 61.6873 65.0222 61.818C64.9008 61.9393 64.7515 62 64.5742 62H64.1822C64.0048 62 63.8555 61.9393 63.7342 61.818C63.6128 61.6873 63.5522 61.5333 63.5522 61.356V56.61C63.5522 56.554 63.5288 56.5073 63.4822 56.47C63.4448 56.4327 63.4028 56.414 63.3562 56.414H61.9982C61.9515 56.414 61.9048 56.4327 61.8582 56.47C61.8208 56.5073 61.8022 56.554 61.8022 56.61V61.356C61.8022 61.5333 61.7415 61.6873 61.6202 61.818C61.4988 61.9393 61.3495 62 61.1722 62H60.7802C60.6028 62 60.4488 61.9393 60.3182 61.818C60.1968 61.6873 60.1362 61.5333 60.1362 61.356V56.316C60.1362 56.0267 60.2062 55.7653 60.3462 55.532C60.4955 55.2893 60.6868 55.098 60.9202 54.958C61.1535 54.818 61.4148 54.748 61.7042 54.748H63.6502C63.9395 54.748 64.2008 54.818 64.4342 54.958C64.6675 55.098 64.8542 55.2893 64.9942 55.532C65.1342 55.7653 65.2042 56.0267 65.2042 56.316V61.356ZM70.5012 61.356C70.5012 61.5333 70.4405 61.6873 70.3192 61.818C70.1979 61.9393 70.0485 62 69.8712 62H67.9112C67.4819 62 67.1132 61.8507 66.8052 61.552C66.5065 61.244 66.3572 60.8707 66.3572 60.432V53.18C66.3572 52.9933 66.4179 52.8393 66.5392 52.718C66.6605 52.5967 66.8099 52.536 66.9872 52.536H67.3792C67.5565 52.536 67.7059 52.5967 67.8272 52.718C67.9579 52.8393 68.0232 52.9933 68.0232 53.18V54.58C68.0232 54.692 68.0839 54.748 68.2052 54.748H69.8712C70.0485 54.748 70.1979 54.8133 70.3192 54.944C70.4405 55.0653 70.5012 55.2193 70.5012 55.406V55.784C70.5012 55.9427 70.4405 56.092 70.3192 56.232C70.1792 56.3533 70.0299 56.414 69.8712 56.414H68.2052C68.0839 56.414 68.0232 56.4793 68.0232 56.61V60.166C68.0232 60.2873 68.0839 60.348 68.2052 60.348H69.8712C70.0485 60.348 70.1979 60.4087 70.3192 60.53C70.4405 60.6513 70.5012 60.8053 70.5012 60.992V61.356ZM76.7022 57.842C76.7022 58.122 76.6322 58.3833 76.4922 58.626C76.3522 58.8593 76.1656 59.0507 75.9322 59.2C75.6989 59.34 75.4376 59.41 75.1482 59.41H73.4962C73.4496 59.41 73.4029 59.4287 73.3562 59.466C73.3189 59.494 73.3002 59.5313 73.3002 59.578V60.166C73.3002 60.2127 73.3189 60.2547 73.3562 60.292C73.4029 60.3293 73.4496 60.348 73.4962 60.348H75.1482C75.3256 60.348 75.4749 60.4087 75.5962 60.53C75.7269 60.6513 75.7922 60.8053 75.7922 60.992V61.356C75.7922 61.5333 75.7269 61.6873 75.5962 61.818C75.4749 61.9393 75.3256 62 75.1482 62H73.2022C72.7729 62 72.4042 61.8507 72.0962 61.552C71.7882 61.244 71.6342 60.8707 71.6342 60.432V56.316C71.6342 56.0267 71.7042 55.7653 71.8442 55.532C71.9936 55.2987 72.1849 55.112 72.4182 54.972C72.6516 54.8227 72.9129 54.748 73.2022 54.748H75.1482C75.4376 54.748 75.6989 54.8227 75.9322 54.972C76.1656 55.112 76.3522 55.2987 76.4922 55.532C76.6322 55.7653 76.7022 56.0267 76.7022 56.316V57.842ZM75.0502 57.562V56.61C75.0502 56.554 75.0269 56.5073 74.9802 56.47C74.9429 56.4327 74.9009 56.414 74.8542 56.414H73.4962C73.4496 56.414 73.4029 56.4327 73.3562 56.47C73.3189 56.5073 73.3002 56.554 73.3002 56.61V57.562C73.3002 57.5993 73.3189 57.6367 73.3562 57.674C73.4029 57.7113 73.4496 57.73 73.4962 57.73H74.8542C74.9009 57.73 74.9429 57.7113 74.9802 57.674C75.0269 57.6367 75.0502 57.5993 75.0502 57.562ZM81.9993 55.784C81.9993 55.9613 81.9386 56.1107 81.8173 56.232C81.6959 56.3533 81.5466 56.414 81.3693 56.414H79.7033C79.5819 56.414 79.5213 56.4793 79.5213 56.61V61.356C79.5213 61.5333 79.4559 61.6873 79.3253 61.818C79.2039 61.9393 79.0546 62 78.8773 62H78.4853C78.3079 62 78.1586 61.9393 78.0373 61.818C77.9159 61.6873 77.8553 61.5333 77.8553 61.356V56.316C77.8553 56.0267 77.9253 55.7653 78.0653 55.532C78.2053 55.2893 78.3919 55.098 78.6253 54.958C78.8586 54.818 79.1199 54.748 79.4093 54.748H81.3693C81.5466 54.748 81.6959 54.8133 81.8173 54.944C81.9386 55.0653 81.9993 55.2193 81.9993 55.406V55.784Z" fill="#F9EEDC"/>
<defs>
<clipPath id="clip0_4251_582">
<rect width="46" height="66" fill="white"/>
</clipPath>
</defs>
</svg>
